<svg height="48" viewBox="0 0 12.7 12.7" width="48" xmlns="http://www.w3.org/2000/svg"><path d="m1.0583333 1.8520827c-.26458335 0-.52916668.2645834-.52916668.5291667v7.9374996c0 .264584.26458333.529167.52916668.529167h10.5833327c.264584 0 .529167-.264583.529167-.529167v-7.9374996c0-.2645833-.264583-.5291667-.529167-.5291667zm.2232422.5291667h8.5080077c.2645828 0 .2645828.2645833.2645828.2645833v5.8208333s0 .2645833-.2645828.2645833h-8.4666666c-.2645833 0-.2645833-.2645833-.2645833-.2645833v-5.8208333c0-.1984375.1488281-.2521796.2232422-.2645833zm9.8309245 0c.292251 0 .529166.2369159.529166.5291667s-.236915.5291666-.529166.5291666-.529167-.2369158-.529167-.5291666.236916-.5291667.529167-.5291667zm-7.4083334.79375v5.0270833h.5291666v-5.0270833zm3.1749999 0v4.7624999h.5291667v-4.7624999zm-2.1166666.2645833v3.96875h.5291667v-3.96875zm3.175.2645834v3.4395832h.5291666v-3.4395832zm-5.2916666.2645833v2.9104166h.5291666v-2.9104166zm3.1749999.5291666v2.1166667h.5291667v-2.1166667zm-4.2333333.2645834v1.3229166h.5291667v-1.3229166zm7.4083333.2645833v1.0583333h.5291666v-1.0583333zm2.1166668.79375c.292251 0 .529166.2369158.529166.5291667 0 .2922508-.236915.5291666-.529166.5291666s-.529167-.2369158-.529167-.5291666c0-.2922509.236916-.5291667.529167-.5291667zm-9.5250001 3.4395833c.2922508 0 .5291667.2369158.5291667.5291666 0 .2922504-.2369159.5291664-.5291667.5291664s-.5291666-.236916-.5291666-.5291664c0-.2922508.2369158-.5291666.5291666-.5291666zm9.5250001 0c.292251 0 .529166.2369158.529166.5291666 0 .2922504-.236915.5291664-.529166.5291664s-.529167-.236916-.529167-.5291664c0-.2922508.236916-.5291666.529167-.5291666z" fill="#fff"/></svg>