<svg height="16" viewBox="0 0 4.2333332 4.2333332" width="16" xmlns="http://www.w3.org/2000/svg"><path d="m.52916618.52916614v.26458333h.79375002v-.26458333zm.79375002.52916666v.2645833h.79375v-.2645833zm1.5874999 0v.2645833h.79375v-.2645833zm-2.38124992.5291667v.2645833h.79375002v-.2645833zm1.58750002 0v.2645833h.7937499v-.2645833zm-.79375.5291666v.2645834h.79375v-.2645834zm1.5874999 0v.2645834h.79375v-.2645834zm-2.38124992.5291667v.2645833h.79375002v-.2645833zm1.58750002 0v.2645833h.7937499v-.2645833zm-.79375.5291666v.2645834h.79375v-.2645834zm1.5874999 0v.2645834h.79375v-.2645834zm-.7937499.5291667v.2645833h.7937499v-.2645833z" fill="#fff"/></svg>