<svg height="22" viewBox="0 0 5.8208332 5.8208332" width="22" xmlns="http://www.w3.org/2000/svg"><path d="m11.001953 0c-4.4555019 0-8.001953 2.9709072-8.001953 6.6367187v8.3632813l16-5.0000001v-3.3632812c0-3.6658115-3.542544-6.63671885-7.998047-6.6367187zm-2.0019531 4h1v3.9511718a1.9999999 1.9999999 0 0 1 0 .0488281 1.9999999 1.9999999 0 0 1 -2 2 1.9999999 1.9999999 0 0 1 -2-2 1.9999999 1.9999999 0 0 1 2-2 1.9999999 1.9999999 0 0 1 1 .2695313zm6.0000001 0h1v3.9511718a1.9999999 1.9999999 0 0 1 0 .0488281 1.9999999 1.9999999 0 0 1 -2 2 1.9999999 1.9999999 0 0 1 -2-2 1.9999999 1.9999999 0 0 1 2-2 1.9999999 1.9999999 0 0 1 1 .2695313zm4 8-16 5v5l2.6660156-4 2.6679687 4 2.6660157-4 2.666015 4 2.667969-4 2.666016 4z" fill="#fff" transform="scale(.26458333)"/></svg>