<svg height="22" viewBox="0 0 5.8208332 5.8208332" width="22" xmlns="http://www.w3.org/2000/svg"><path d="m11.001953 0c-4.4555019 0-8.001953 2.9709073-8.001953 6.6367188v15.3632812l2.6660156-4 2.6679688 4 2.6660156-4 2.666016 4 2.667968-4 2.666016 4v-15.3632812c0-3.6658115-3.542544-6.63671895-7.998047-6.6367188zm-5.470703 5.46875 1.96875 1.9726562 1.9726562-1.9726562 1.0566408 1.0625-1.9687501 1.96875 1.9687501 1.972656-1.0566408 1.056641-1.9726562-1.9687501-1.96875 1.9687501-1.0625-1.056641 1.9726562-1.972656-1.9726562-1.96875zm7 0 1.96875 1.9726562 1.972656-1.9726562 1.056641 1.0625-1.96875 1.96875 1.96875 1.972656-1.056641 1.056641-1.972656-1.9687501-1.96875 1.9687501-1.0625-1.056641 1.972656-1.972656-1.972656-1.96875z" fill="#fff" stroke-linecap="round" stroke-linejoin="round" stroke-width=".999999" transform="scale(.26458333)"/><g stroke-width=".396875"><g transform="translate(-.132292 .132292)"><path d="m1.4552083 1.4552083 1.3229166 1.3229166"/><path d="m1.4552083 2.7781249 1.3229166-1.3229166"/></g><g transform="translate(1.719792 .132292)"><path d="m1.4552083 1.4552083 1.3229166 1.3229166"/><path d="m1.4552083 2.7781249 1.3229166-1.3229166"/></g></g></svg>