<svg height="22" viewBox="0 0 5.8208332 5.8208332" width="22" xmlns="http://www.w3.org/2000/svg"><path d="m2.9108246 0v.79363888c.584417 0 1.1133508.23704412 1.4963405.62003042l.5621602-.56216091c-.5682165-.56821371-1.3137647-.85150839-2.0585007-.85150839z" fill="#0eb487"/><path d="m.85220495.85150836c-.56813714.56821374-.85220439 1.31335874-.85220439 2.05850074h.79434266c0-.5844196.23700848-1.1133535.61994258-1.4963398z" fill="#7f0a1d"/><path d="m.00000056 2.9100091c0 .7451424.28406725 1.4902847.85220439 2.0585009l.56208085-.5621607c-.3829341-.3829891-.61994258-.9119203-.61994258-1.4963402z" fill="#b90934"/><path d="m4.9686294.85150836c.5681372.56821374.8522044 1.31335874.8522044 2.05850074h-.7943426c0-.5844196-.2370058-1.1133535-.6199426-1.4963398z" fill="#3ae1d9"/><path d="m5.8208338 2.9100091c0 .7451424-.2840672 1.4902847-.8522044 2.0585009l-.5620808-.5621607c.3829368-.3829891.6199426-.9119203.6199426-1.4963402z" fill="#1b6a8b"/><path d="m2.9108246 5.8208332v-.7936388c.584417 0 1.1133508-.2370442 1.4963405-.6200304l.5621602.562161c-.5682165.5682136-1.3137647.8515082-2.0585007.8515082z" fill="#3f2e8e"/><path d="m2.9108246 5.8208332c-.7447385 0-1.4902867-.2832946-2.05850059-.8515082l.56216019-.562161c.3829897.3829862.9119209.6200304 1.4963404.6200304z" fill="#712472"/><path d="m2.9108246-.00000003c-.7447385 0-1.4902867.28329466-2.05850059.85150853l.56216019.5621607c.3829897-.3829862.9119209-.62003037 1.4963404-.62003037z" fill="#088757"/></svg>