<svg height="20" viewBox="0 0 5.2916665 5.2916665" width="20" xmlns="http://www.w3.org/2000/svg"><g fill="#fff" transform="matrix(.26458333 0 0 .26458333 31.485416 39.009505)"><path d="m435 145c-.34366 0-.66636.025-1 .0625v8.75h2v-8.75c-.33364-.0375-.65634-.0625-1-.0625z" transform="translate(-544 -290.5)"/><path d="m435 145c-4.97056 0-9 4.02944-9 9 0 2.14366.74875 4.11044 2 5.65625l-2 1.34375h5v-5l-1.5 2.25c-.92159-1.18322-1.5-2.633-1.5-4.25 0-3.86599 3.13401-7 7-7z" transform="translate(-544 -290.5)"/><path d="m-109-145.5c4.97056 0 9 4.02944 9 9 0 2.14366-.74875 4.11044-2 5.65625l2 1.34375h-5v-5l1.5 2.25c.92159-1.18322 1.5-2.633 1.5-4.25 0-3.86599-3.13401-7-7-7z" opacity=".45"/></g></svg>