<svg height="11" viewBox="0 0 112 11" width="112" xmlns="http://www.w3.org/2000/svg" xmlns:xlink="http://www.w3.org/1999/xlink"><linearGradient id="a" gradientUnits="userSpaceOnUse" x1="669.99109" x2="669.99109" y1="-504.986612" y2="-501.986612"><stop offset="0" stop-opacity=".69"/><stop offset="1" stop-opacity=".392157"/></linearGradient><g transform="translate(-648 478.00003)"><path d="m648-478.00003h112v11h-112z" fill="none"/><path d="m651.5-475.99217c-1.933 0-3.5 1.567-3.5 3.5s1.567 3.5 3.5 3.5c.9665 0 1.83537-.39787 2.46875-1.03125l-.84375-.5625c-.43596.37017-1.00828.59375-1.625.59375-1.38071 0-2.5-1.11929-2.5-2.5s1.11929-2.5 2.5-2.5c.61672 0 1.18904.22358 1.625.59375l.84375-.5625c-.63338-.63337-1.50225-1.03125-2.46875-1.03125zm3.5 0v7h1v-3h1c1 0 2.001-.99764 2-2-.001-.99762-1-2-2-2zm5 0v4c0 2 1 3 2.5 3s2.5-1 2.5-3v-4h-1v4c0 .49692 0 2-1.5 2s-1.53718-1.49829-1.5-2v-4zm-4 1h1s1 0 1 1-1 1-1 1h-1z" fill="#fff"/><g transform="translate(.00893 30.986579)"><path d="m668.99107-506.98661h84c1.939 0 3.49999 1.561 3.49999 3.5s-1.56099 3.5-3.49999 3.5h-84z" fill="url(#a)"/><path d="m815.13393 19.65625v1h85c1.03919 0 1.93368.605444 2.3125 1.5-.42899-1.443574-1.72435-2.5-3.3125-2.5z" opacity=".8" transform="translate(-146.14286 -526.64286)"/><path d="m668.99107-499.98661h84c1.74033 0 3.16154-1.27784 3.4375-2.9375-.25778 1.10694-1.24986 1.9375-2.4375 1.9375h-85z" fill="#fff" opacity=".05"/></g></g></svg>