<svg height="16" viewBox="0 0 4.2333332 4.2333332" width="16" xmlns="http://www.w3.org/2000/svg"><path d="m8 0a8.0000002 8.0000002 0 0 0 -8 8 8.0000002 8.0000002 0 0 0 8 8 8.0000002 8.0000002 0 0 0 8-8 8.0000002 8.0000002 0 0 0 -8-8zm-.1152344 2.9960938c1.0618651-.0002286 2.0346813.6089348 2.5097654 1.5585937.469049.9380973.396236 2.0570127-.185547 2.9296875l-.6054684.9160156c-.3199528.4799302-.5130889 1.0300661-.5761718 1.5996094h-2c.0673773-.9645583.3691898-1.8985115.9082031-2.7070312l.6132812-.9140626c.1854843-.278225.2081346-.632559.0585938-.9316406-.138045-.2759418-.4141108-.4492849-.7226563-.4492187-.498726 0-.8867187.3860395-.8867187.8847656v.1191406h-2v-.1191406c0-1.5796071 1.3071116-2.8867188 2.8867187-2.8867187zm-.8847656 8.0039062h2v2h-2z" fill="#fff" stroke-linecap="round" stroke-linejoin="round" stroke-width=".999999" transform="scale(.26458333)"/></svg>