<svg height="20" viewBox="0 0 5.2916665 5.2916665" width="20" xmlns="http://www.w3.org/2000/svg"><path d="m1.8520832.00000316v.26458333h-.5291666v.52916666h2.1166666v-.52916666h-.5291666v-.26458333zm-1.05833329.52916666c-.14657916 0-.26458333.11800417-.26458333.26458333v3.96874995c0 .1465792.11800417.2645833.26458333.2645833h1.05833329v-3.7041692h2.38125v-.52916405c0-.14657916-.1180042-.26458333-.2645833-.26458333h-.2645834v.52916668h-2.6458333v-.52916668zm1.32291669 1.05833068v3.7041693h2.6458333v-3.7041693zm.2645833.5291667h2.1166666v.2645833h-2.1166666zm0 .7937499h2.1166666v.2645834h-2.1166666zm0 .7937474h2.1166666v.2645833h-2.1166666zm0 .7937526h2.1166666v.2645834h-2.1166666z" fill="#fff"/></svg>