<svg height="20.000126" viewBox="0 0 5.2916701 5.2917001" width="20.000013" xmlns="http://www.w3.org/2000/svg"><g transform="translate(-150.05655 -196.92558)"><path d="m154.95135 196.92558-1.5875 1.58751v.39688l1.32292 1.32291h.39688l.26457-.26459v-3.04271zm-1.85208 2.24897-2.24896 2.24896 3.04271-.39688.52917-.52916zm.39688 2.24896-3.04272.39687-.39687.3969 3.04271-.39689z" fill="#fff"/><g transform="matrix(0 -.26458333 -.26458333 0 131.80055 193.75045)"><path d="m-31.99999-113.99904h20v20h-20z" fill="none" opacity=".5"/><path d="m311 236-6.5 6.5v1l4.5 4.5h1l2-2.00052v-10zm-7.5 8.5-8.5 8.5 11.83834-2.81865 1.16166-1.18135zm1.83834 7.18135-11.83834 2.81865-1.5 1.49948 11.83834-2.81865z" fill="#fff" transform="matrix(0 -1 -1 0 223.99949 198.00094)"/></g></g></svg>