<svg height="20" viewBox="0 0 5.2916665 5.2916665" width="20" xmlns="http://www.w3.org/2000/svg"><path d="m-.00000009.00000038v.52916666h.52916666v-.52916666zm.79374999 0v.52916666h.5291667v-.52916666zm.79375 0v.52916666h.5291666v-.52916666zm.79375 0v.52916666h.5291666v-.52916666zm.79375 0v.52916666h.5291666v-.52916666zm.79375 0v.52916666h.5291666v-.52916666zm.7937499 0v.52916666h.5291667v-.52916666zm-4.76249989.79374999v.52916663h.52916666v-.52916663zm4.76249989 0v.52916663h.5291667v-.52916663zm-4.76249989.79375003v.5291666h.52916666v-.5291666zm4.76249989 0v.5291666h.5291667v-.5291666zm-4.76249989.7937499v.5291667h.52916666v-.5291667zm4.76249989 0v.5291667h.5291667v-.5291667zm-4.76249989.79375v.5291675h.52916666v-.5291675zm4.76249989 0v.5291675h.5291667v-.5291675zm-4.76249989.7937508v.5291667h.52916666v-.5291667zm4.76249989 0v.5291667h.5291667v-.5291667zm-4.76249989.79375v.5291667h.52916666v-.5291667zm.79374999 0v.5291667h.5291667v-.5291667zm.79375 0v.5291667h.5291666v-.5291667zm.79375 0v.5291667h.5291666v-.5291667zm.79375 0v.5291667h.5291666v-.5291667zm.79375 0v.5291667h.5291666v-.5291667zm.7937499 0v.5291667h.5291667v-.5291667z" fill="#fff"/></svg>