<svg height="20" viewBox="0 0 5.2916665 5.2916665" width="20" xmlns="http://www.w3.org/2000/svg"><path d="m32 266v4l12 12c1.78846-.39893 3-2.0913 3-4 0-2.20914-1.79086-4-4-4-.84635 0-1.60998.30155-2.25.75zm12 0-5.5 5.5 2 2 3.5-3.5zm-11 8c-2.20914 0-4 1.79086-4 4 0 1.9087 1.21154 3.60107 3 4l5.5-5.5-2-2-.25.25c-.64002-.44845-1.40365-.75-2.25-.75zm0 1c1.08482 0 2.0356.57486 2.5625 1.4375l-4.125 4.125c-.86264-.5269-1.4375-1.47769-1.4375-2.5625 0-1.65685 1.34314-3 3-3zm10 0c1.65686 0 3 1.34315 3 3 0 1.08481-.57486 2.0356-1.4375 2.5625l-4.125-4.125c.5269-.86264 1.47768-1.4375 2.5625-1.4375z" fill="#fff" transform="matrix(.26458333 0 0 .26458333 -7.408341 -69.850012)"/></svg>