<svg height="16" viewBox="0 0 4.2333332 4.2333332" width="16" xmlns="http://www.w3.org/2000/svg"><g fill="#fff" stroke-linecap="round" stroke-linejoin="round" stroke-width="1.85208"><path d="m0 0h.529167v1.5875h-.529167z"/><path d="m-.529167 0h.529167v1.5875h-.529167z" transform="rotate(-90)"/><path d="m-4.233333 0h.529167v1.5875h-.529167z" transform="scale(-1 1)"/><path d="m-.529167-4.233333h.529167v1.5875h-.529167z" transform="matrix(0 -1 -1 0 0 0)"/><path d="m0-4.233333h.529167v1.5875h-.529167z" transform="scale(1 -1)"/><path d="m3.704167 0h.529167v1.5875h-.529167z" transform="matrix(0 1 1 0 0 0)"/><path d="m-4.233333-4.233333h.529167v1.5875h-.529167z" transform="scale(-1)"/><path d="m3.704167-4.233333h.529167v1.5875h-.529167z" transform="rotate(90)"/></g></svg>