<svg height="18" width="18" xmlns="http://www.w3.org/2000/svg"><path d="m8.0270042 0c-.5289423 0-.9542971.42536378-.9542971.95430605v.25132025h-.00879a2.5096571 2.5096571 0 0 1 -.3321614 1.2548285 2.5096571 2.5096571 0 0 1 -3.4270705.919141l-.2161642-.1247783c-.4580723-.2644666-1.0395642-.1083385-1.3040398.3497338l-1.03513703 1.7908704c-.26446664.4580723-.10833855 1.0413188.34973373 1.3057945l.2179369.1265329-.00352.00527a2.5096571 2.5096571 0 0 1 .9226683.9121314 2.5096571 2.5096571 0 0 1 -.884012 3.4077155l-.2530749.14587c-.45807228.264475-.61420037.845967-.34973373 1.30404l1.03515503 1.792616c.2644576.458072.8459585.614209 1.3040308.349733l.2214462-.128296a2.5096571 2.5096571 0 0 1 .00175-.0017 2.5096571 2.5096571 0 0 1 1.2530739-.333924 2.5096571 2.5096571 0 0 1 2.5078934 2.493857v.268884c0 .528943.4253638.956061.9543061.956061h2.0685381c.528942 0 .95606-.427118.95606-.956061v-.254836h.02987a2.5096571 2.5096571 0 0 1 .30756-1.256592 2.5096571 2.5096571 0 0 1 2.052718-1.253074 2.5096571 2.5096571 0 0 1 1.323368.311068l.268894.154661c.458081.264476 1.039564.108339 1.30404-.349733l1.035155-1.792616c.264457-.458073.108338-1.039565-.349743-1.30404l-.221446-.128288.01582-.02812a2.5096571 2.5096571 0 0 1 -.933197-.894593 2.5096571 2.5096571 0 0 1 .864666-3.3883962l.274167-.1581706c.458072-.2644757.614209-.8477222.349734-1.3057945l-1.035137-1.7908704c-.264467-.4580723-.845959-.6142004-1.30404-.3497338l-.216164.1247783-.0053-.00878a2.5096571 2.5096571 0 0 1 -1.256566.3409403 2.5096571 2.5096571 0 0 1 -2.504384-2.4674735v-.28997655c0-.52894227-.427118-.95430605-.95606-.95430605zm1.1845255 5.8541149a3.1493764 3.1493764 0 0 1 2.5764513 1.5711789 3.1493764 3.1493764 0 0 1 -1.151143 4.3022732 3.1493764 3.1493764 0 0 1 -4.3022727-1.152906 3.1493764 3.1493764 0 0 1 1.1528967-4.3022729 3.1493764 3.1493764 0 0 1 1.7240767-.4182822z" fill="#fff"/></svg>