<svg height="22" viewBox="0 0 5.8208332 5.8208332" width="22" xmlns="http://www.w3.org/2000/svg"><path d="m11.001953 0c-4.4555019 0-8.001953 2.9709073-8.001953 6.6367188v15.3632812l2.6660156-4 2.6679688 4 2.6660156-4 2.666016 4 2.667968-4 2.666016 4v-15.3632812c0-3.6658115-3.542544-6.63671895-7.998047-6.6367188zm-2.001953 4h1v3.9511719a1.9999999 1.9999999 0 0 1 0 .0488281 1.9999999 1.9999999 0 0 1 -2 2 1.9999999 1.9999999 0 0 1 -2-2 1.9999999 1.9999999 0 0 1 2-2 1.9999999 1.9999999 0 0 1 1 .2695312zm6 0h1v3.9511719a1.9999999 1.9999999 0 0 1 0 .0488281 1.9999999 1.9999999 0 0 1 -2 2 1.9999999 1.9999999 0 0 1 -2-2 1.9999999 1.9999999 0 0 1 2-2 1.9999999 1.9999999 0 0 1 1 .2695312z" fill="#fff" stroke-linecap="round" stroke-linejoin="round" stroke-width=".999999" transform="scale(.26458333)"/></svg>