<svg height="14" width="14" xmlns="http://www.w3.org/2000/svg"><path d="m7 1.0000248c-1.472525.00403-2.993968.4818935-4.136604 1.5s-1.863396 2.587205-1.863396 4.5000002v5c0 .5.5 1 1 1h2c.5 0 1-.5 1-1v-3c0-.5-.5-1-1-1h-1c0-.5 0-.5 0-1 0-1.4114252.513729-2.3474522 1.246094-3.0000002.732364-.6525475 1.726429-.9971905 2.753906-1 1.027475-.00281 2.03517.354394 2.765625 1.0039065.725007.6446695 1.226413 1.5866425 1.234375 2.9960937v1h-1c-.5 0-1 .5-1 1v3c0 .5.5 1 1 1h2c.5 0 1-.5 1-1v-5c-.007716-1.9108922-.734418-3.4878357-1.872712-4.5000002-1.144544-1.0177225-2.654765-1.5040265-4.127288-1.5z" fill="#fff"/></svg>