<svg height="22" viewBox="0 0 5.8208332 5.8208332" width="22" xmlns="http://www.w3.org/2000/svg"><path d="m2.9104166 0c-1.6073781 0-2.91041661 1.3030385-2.91041661 2.9104166s1.30303851 2.9104166 2.91041661 2.9104166 2.9104166-1.3030385 2.9104166-2.9104166-1.3030385-2.9104166-2.9104166-2.9104166zm0 .79374996c.8509661 0 1.3229166.47195054 1.3229166 1.32291664 0 1.0272051-1.0583333 1.058336-1.0583333 1.8520833h-.5291666c0-1.0583307 1.0583333-1.0816801 1.0583333-1.8520833 0-.5673116-.2264384-.79375-.79375-.79375s-.79375.2264384-.79375.79375h-.5291666c0-.8509661.4719505-1.32291664 1.3229166-1.32291664zm-.2645833 3.70416664h.5291666v.5291666h-.5291666z" fill="#fff"/></svg>