<svg height="22" viewBox="0 0 5.8208332 5.8208332" width="22" xmlns="http://www.w3.org/2000/svg"><path d="m10.990234 2a8.9999999 8.9999999 0 0 0 -8.990234 9 8.9999999 8.9999999 0 0 0 9 9 8.9999999 8.9999999 0 0 0 9-9 8.9999999 8.9999999 0 0 0 -9-9 8.9999999 8.9999999 0 0 0 -.009766 0zm-.107422 2a7.0540542 7.0000001 0 0 1 .001954 0 7.0540542 7.0000001 0 0 1 .115234 0 7.0540542 7.0000001 0 0 1 5.527344 2.6503906l-12.0683596 6.9687504a7.0540542 7.0000001 0 0 1 -.5136719-2.619141 7.0540542 7.0000001 0 0 1 6.9374995-7zm6.65625 4.3769531a7.0540542 7.0000001 0 0 1 .515626 2.6230469 7.0540542 7.0000001 0 0 1 -7.054688 7 7.0540542 7.0000001 0 0 1 -5.5273438-2.650391z" fill="#fff" transform="scale(.26458333)"/></svg>