<svg height="20" viewBox="0 0 5.2916665 5.2916665" width="20" xmlns="http://www.w3.org/2000/svg"><path d="m1.1906251 1.3229162c-.36644795 0-.66145836.2950104-.66145836.6614583v1.3229167c0 .3664479.29501041.6614583.66145836.6614583h.9260416v-.5291667h-.79375c-.1465791 0-.2645833-.1180041-.2645833-.2645833v-1.0583333c0-.1465792.1180042-.2645833.2645833-.2645833h2.6458333c.1465792 0 .2645834.1180041.2645834.2645833v1.0583333c0 .1465792-.1180042.2645833-.2645834.2645833h-.2645833v-.79375l-1.0583333 1.0583334 1.0583333 1.0583333v-.79375h.396875c.3664479 0 .6614583-.2950104.6614583-.6614583v-1.3229167c0-.3664479-.2950104-.6614583-.6614583-.6614583z" fill="#fff" opacity=".35"/></svg>