<svg height="16" viewBox="0 0 4.2333332 4.2333332" width="16" xmlns="http://www.w3.org/2000/svg"><path d="m.79375011.26458208v3.70416662h2.64583329v-2.6458333h-1.0583333v-1.05833332zm1.85208329 0v.79375002h.79375zm.5291667 1.32291932v1.322914.264586c0 .2645833 0 .2645833-.2645833.2645833h-.2645834c-.2645833 0-.2645833.00106-.2645833-.2645833 0-.2645834 0-.2645834.2645833-.2645834l.2645834-.0000026v-.7937474l-1.0583334.2121377v.846193.264586c0 .2645833 0 .2645833-.2645833.2645833h-.2645833c-.2645834 0-.2645834 0-.2645834-.2645833s0-.2645833.2645834-.2645833l.2645833-.0000027v-1.322914z" fill="#fff"/></svg>