<svg height="32" viewBox="0 0 8.4666665 8.4666665" width="32" xmlns="http://www.w3.org/2000/svg"><path d="m.52916794 1.058345v6.3499999h7.40833326v-6.3499999zm.52916666.5291667h6.3499999v3.7041666h-6.3499999zm2.1166666.5291666c-1.0583333 0-1.5874999.5291667-1.5874999 2.1166667h.5291666c0-1.5875.5291667-1.5875 1.0583333-1.5875.5291667-.0000053.79375.4883732.79375.7772135s.2645834 1.3394531 1.3229167 1.3394531 1.5875-.5291666 1.5875-2.1166666l-.5291667-.0000048c0 1.5875-.5291667 1.5875048-1.0583333 1.5875048-.5291667 0-.79375-.5382684-.79375-.8102865s-.2645833-1.3063855-1.3229167-1.3063802zm-1.157552 3.7041666c.0055-.0000862.011007-.0000862.01651 0 .027517-.00217.055176-.00217.082682 0 .2770716 0 .5291666.2520956.5291666.5291667s-.252095.5291667-.5291666.5291667c-.2770717 0-.5291667-.2520956-.5291667-.5291667-.004233-.2469139.1873676-.4829016.4299482-.5291667zm2.1166666 0c.0055-.0000862.011007-.0000862.01651 0 .027517-.00217.055176-.00217.082682 0 .2770717 0 .5291667.2520956.5291667.5291667s-.252095.5291667-.5291667.5291667-.5291667-.2520956-.5291667-.5291667c-.004233-.2469139.1873677-.4829016.4299483-.5291667zm2.1166667 0c.0055-.0000862.011007-.0000862.01651 0 .027517-.00217.055176-.00217.082682 0 .2770717 0 .5291667.2520956.5291667.5291667s-.252095.5291667-.5291667.5291667c-.2770716 0-.5291666-.2520956-.5291666-.5291667-.0042332-.2469139.1873675-.4829016.4299481-.5291667z" fill="#fff"/></svg>