<svg height="22" viewBox="0 0 5.8208332 5.8208332" width="22" xmlns="http://www.w3.org/2000/svg"><path d="m2.9104164.52929762c-.7306283 0-1.3229166.59228828-1.3229166 1.32291668 0 .4296939.2117884.8084105.5291666 1.0500651v-.3472657c-.1649756-.1866397-.2645833-.4341124-.2645833-.7027994 0-.5845016.4738317-1.05833335 1.0583333-1.05833335s1.0583334.47383175 1.0583334 1.05833335c0 .268687-.099608.5161597-.2645834.7027994v.3472657c.3173783-.2416546.5291667-.6203712.5291667-1.0500651 0-.7306284-.5922883-1.32291668-1.3229167-1.32291668zm-.2645833 1.05833328v.2645834.2645833h-.2645833v1.5875h.2645833v2.1166666h.5291667v-2.1166666h.2645833v-1.5875h-.2645833v-.2645833-.2645834z" fill="#fff"/></svg>