<svg height="20" viewBox="0 0 5.2916665 5.291667" width="20" xmlns="http://www.w3.org/2000/svg"><g transform="matrix(-.26458333 0 0 .26458333 1.5875 -22.225)"><path d="m-14 84h20v20h-20z" fill-rule="evenodd" opacity="0"/><g fill="#fff"><path d="m-13 98.999964v5.000006h17v-5.000006zm1 1h15v3.000006h-15z"/><path d="m-13 91.999994v5h8v-5zm1 1h6v3h-6z"/><path d="m-13 84.999994v5l5 .000005v-5zm1 1 3 .000005v3l-3-.000005z"/><path d="m.69053036 84.921894c-2.12252996-.56873-4.30423996.69088-4.87296996 2.81341-.56873 2.12254.69087 4.30425 2.81341 4.87298.83211996.22296 1.67218996.17258 2.42174-.10829l2.17212 3.76222c.33099.57331 1.47757-.0887 1.14659-.66197l-2.17212-3.76223c.61802-.50869 1.08168-1.21103 1.30465-2.04314.56873-2.12254-.69088-4.30425-2.81342004-4.87298zm-.2423.90428c1.62312004.43491 2.58635004 2.10328 2.15144004 3.72639-.43492 1.62312-2.10328004 2.58635-3.7264 2.15144-1.62311-.43491-2.58634-2.10328-2.15143-3.72639.43491-1.62312 2.10328-2.58635 3.72638996-2.15144z"/></g></g></svg>