<svg height="24" viewBox="0 0 6.3499999 6.3499999" width="24" xmlns="http://www.w3.org/2000/svg"><path d="m3.175.52916206c-1.461254 0-2.6458333 1.18457924-2.6458333 2.64583334 0 1.461254 1.1845793 2.6458333 2.6458333 2.6458333.5948362 0 1.1456008-.1978211 1.5875-.5291667l.5291666.5291667.5291667-.5291667-.5291667-.5291667c.3313457-.4418991.5291667-.9926637.5291667-1.5874999 0-1.4612541-1.1845793-2.64583334-2.6458333-2.64583334zm0 .79374994c1.0228792 0 1.8520833.8292069 1.8520833 1.8520834 0 .3768275-.1126252.7245111-.3059245 1.0169921l-.4878255-.4878255-.5291666.5291667.4878255.4878255c-.292481.1932993-.6401647.3059245-1.0169922.3059245-1.0228765 0-1.8520833-.8292068-1.8520833-1.8520833s.8292068-1.8520834 1.8520833-1.8520834z" fill="#fff"/></svg>