<svg height="20" viewBox="0 0 5.2916665 5.2916665" width="20" xmlns="http://www.w3.org/2000/svg"><path d="m2.6458329.52916704a2.1166666 2.1166666 0 0 0 -2.11666667 2.11666666 2.1166666 2.1166666 0 0 0 2.11666667 2.1166666 2.1166666 2.1166666 0 0 0 2.1166666-2.1166666 2.1166666 2.1166666 0 0 0 -2.1166666-2.11666666zm0 1.05833336a1.0583333 1.0583333 0 0 1 1.0583333 1.0583333 1.0583333 1.0583333 0 0 1 -1.0583333 1.0583333 1.0583333 1.0583333 0 0 1 -1.0583334-1.0583333 1.0583333 1.0583333 0 0 1 1.0583334-1.0583333z" fill="#fff"/></svg>