<svg height="20" viewBox="0 0 5.2916665 5.2916665" width="20" xmlns="http://www.w3.org/2000/svg"><path d="m10 2a8 8 0 0 0 -8 8 8 8 0 0 0 8 8 8 8 0 0 0 8-8 8 8 0 0 0 -8-8zm-1.0019531 2.9980469h2.0000001c1.64501 0 3.005859 1.3588963 3.005859 3.0039062h-2c0-.5641289-.44173-1.0039062-1.005859-1.0039062h-2.0000001c-.5641285 0-.9960938.4397773-.9960938 1.0039062s.4319649.9960938.9960938.9960938h2.0000001c1.64501 0 3.005859 1.3608501 3.005859 3.0058591 0 1.64501-1.360849 2.996094-3.005859 2.996094h-2.0000001c-1.64501 0-2.9960934-1.351083-2.9960938-2.996094h2c0 .56413.4319645.996094.9960938.996094h2.0000001c.564129 0 1.005859-.431964 1.005859-.996094 0-.564129-.44173-1.005859-1.005859-1.005859h-2.0000001c-1.6450103 0-2.9960938-1.3510839-2.9960938-2.9960939 0-1.6450099 1.3510838-3.0039062 2.9960938-3.0039062z" fill="#f00" stroke-linejoin="round" stroke-width="2" transform="scale(.26458333)"/></svg>