<svg height="48" viewBox="0 0 12.7 12.7" width="48" xmlns="http://www.w3.org/2000/svg"><path d="m5.5562496.2645718-.2645834 1.8520833v.1405599c-.3871304.1001025-.7555653.2479119-1.0914062.4464844l-.0992187-.0992188-1.4965495-1.1162109-1.1162109 1.1162109 1.1162109 1.4965495.0992187.0992187c-.1985724.3358409-.3463819.7042732-.4464843 1.0914063h-.1405599l-1.85208333.2645833v1.5875l1.85208333.2645833h.1405599c.1001024.387133.2479119.7555653.4464843 1.0914062l-.0992187.0992188-1.1162109 1.4965493 1.1162109 1.116211 1.4965495-1.116211.0992187-.0992186c.3358409.1985726.7042758.3463816 1.0914062.4464846v.14056l.2645834 1.852083h1.5874999l.2645834-1.852083c.3871304-.100103.7555653-.388472 1.0914062-.5870446l.099219.099219 1.4965489 1.116211 1.116211-1.116211-1.116211-1.4965489-.099218-.099219c.198572-.3358415.346384-.7042738.446484-1.0914068h.14056l1.852083-.2645833v-1.5875l-1.852083-.2645833h-.14056c-.1001-.3871331-.247912-.7555654-.4464844-1.0914063l.0992184-.0992187 1.116211-1.4965495-1.116211-1.1162109-1.4965491 1.1162109-.0992188.0992188c-.3358409-.1985725-.7042758-.3463819-1.0914062-.4464844v-.1405599l-.2645834-1.8520833zm.79375 3.9687499c1.1690032 0 2.1166666.9476634 2.1166666 2.1166667 0 1.1690032-.9476634 2.1166666-2.1166666 2.1166666-1.1690033 0-2.1166667-.9476634-2.1166667-2.1166666 0-1.1690033.9476634-2.1166667 2.1166667-2.1166667z" fill="#fff"/></svg>