<svg height="48" viewBox="0 0 12.7 12.7" width="48" xmlns="http://www.w3.org/2000/svg"><path d="m169 377c-1.66199 0-3 1.33801-3 3v28h4v-18h36v18h4v-28c0-1.66199-1.33801-3-3-3zm2 4h2v5h-2zm5 0h2v5h-2zm5 0h2v5h-2zm7.5 0c1.38071 0 2.5 1.11929 2.5 2.5s-1.11929 2.5-2.5 2.5-2.5-1.11929-2.5-2.5 1.11929-2.5 2.5-2.5zm7 0c1.38071 0 2.5 1.11929 2.5 2.5s-1.11929 2.5-2.5 2.5-2.5-1.11929-2.5-2.5 1.11929-2.5 2.5-2.5zm7 0c1.38071 0 2.5 1.11929 2.5 2.5s-1.11929 2.5-2.5 2.5-2.5-1.11929-2.5-2.5 1.11929-2.5 2.5-2.5zm-31.5 10v17h4v-7h-1v-10zm6 0v10h-1v7h4v-7h-1v-10zm5 0v10h-1v7h4v-17zm4 0v17h4v-7h-1v-10zm6 0v10h-1v7h4v-7h-1v-10zm5 0v10h-1v7h4v-7h-1v-10zm5 0v10h-1v7h4v-17z" fill="#fff" transform="matrix(.26458333 0 0 .26458333 -43.391666 -97.366663)"/></svg>