<svg height="48" viewBox="0 0 12.7 12.7" width="48" xmlns="http://www.w3.org/2000/svg"><path d="m6.3500002.26458325c-3.3608831 0-6.0854167 2.72453365-6.0854167 6.08541675 0 3.360883 2.7245336 6.085417 6.0854167 6.085417 3.3608833 0 6.0854168-2.724534 6.0854168-6.0854171s-2.7245335-6.08541665-6.0854168-6.08541665zm-.2645834 1.33945315v1.3063802h.5291667v-1.3063802c1.115663.061389 2.121072.5077116 2.902148 1.2071615l-.917773.9177733.37207.3720704.917774-.9177734c.6994505.7810765 1.1457735 1.7864852 1.2071615 2.9021484h-1.3063805v.5291667h1.3063805c-.06139 1.1156633-.507711 2.121072-1.2071615 2.9021484l-.917774-.9177734-.37207.3720703.917773.9177735c-.842687.7546209-1.946518 1.2236989-3.1667313 1.2236989-1.2202134 0-2.3240445-.469078-3.1667318-1.2236989l.9177734-.9177735-.3720703-.3720703-.9177734.9177734c-.6994499-.7810764-1.1457728-1.7864851-1.2071615-2.9021484h1.3063802v-.5291667h-1.3063802c.0613887-1.1156632.5077116-2.1210719 1.2071615-2.9021484l.9177734.9177734.3720703-.3720703-.9177734-.9177734c.7810765-.6994499 1.7864852-1.1457728 2.9021484-1.2071615zm2.1332037 2.8773438-2.2406906 1.4965495c-.2066529.2066528-.2066529.5374878 0 .7441406.2066528.2066528.5374878.2066528.7441406 0z" fill="#fff"/></svg>