<svg height="48" viewBox="0 0 12.7 12.7" width="48" xmlns="http://www.w3.org/2000/svg"><path d="m6.6145835 2.1166667-3.9687501 2.3809881v3.7041665l3.9687501 2.3815117zm3.5388025.5457031-.5539717.5705078c.9211867.7260379 1.5130857 1.8525173 1.5130857 3.1171224 0 1.2637241-.593005 2.3827663-1.5130857 3.1088543l.5539717.5787757c1.069702-.8726377 1.752864-2.1992905 1.752864-3.68763 0-1.4883368-.683162-2.8149894-1.752864-3.6876302zm-1.1079431 1.1492839-.5539713.578776c.6233689.4285589 1.0335286 1.1453998 1.0335286 1.9595703 0 .8141732-.4101597 1.5310141-1.0335286 1.9595703l.5539713.578776c.772435-.580342 1.2733071-1.4991158 1.2733071-2.5383463 0-1.0392277-.5008721-1.9580039-1.2733071-2.5383463zm-8.25169275.6860011v3.7041665h1.32291665v-3.7041665zm7.13548185.4798192-.5787761.611849c.3371533.090765.5870443.394835.5870443.760677 0 .3658447-.249891.6699118-.5870443.7606771l.5787761.611849c.479253-.2715022.8020181-.7817221.8020181-1.3725261s-.3227651-1.1010238-.8020181-1.372526z" fill="#fff"/></svg>