<svg height="14" viewBox="0 0 3.7041666 3.7041666" width="14" xmlns="http://www.w3.org/2000/svg"><rect fill-opacity=".668103" height="3.704168" rx=".264585" width="3.704167" y=".00001"/><path d="m1.3229167 2.381511c-.5291667 0-.79375003.5291667-.79375003 1.0583333h.26458333c0-.5291666.2645833-.79375.5291667-.79375.2645833 0 .3936286.2645834.3936286.79375 0 .5291667.1355381 1.0583334.6647047 1.0583334.5291667 0 .79375-.5294277.79375-1.0585944h-.2645833c0 .5291667-.2645833.794011-.5291667.794011-.2645833 0-.4001214-.2645833-.4001214-.79375 0-.5291666-.1290452-1.0583333-.6582119-1.0583333z" fill="#fff" transform="translate(0 -1.5875)"/></svg>