<svg height="16" viewBox="0 0 4.2333332 4.2333332" width="16" xmlns="http://www.w3.org/2000/svg"><path d="m.79374997.26458332v3.70416658h2.64583323v-2.6458333h-1.0583333v-1.05833328zm1.85208323 0v.79374998h.79375zm0 1.32291668h.5291667v.2645834h-.5291667v.5291666h.5208985v.2645834h-.5126303v1.0583333h-.2728515v-1.0583333h-.2645833v-.2645834h.2645833v-.5291666c0-.1882061.059465-.2645834.2645833-.2645834zm-1.3229166.79375h.5291666v.2645834h-.5291666v.2645833h.2645833c.1614779 0 .2645833.1509501.2645833.2645833v.2645834c0 .178308-.057407.2645833-.2645833.2645833h-.5291667v-.2645833h.5291667v-.2645834h-.2645833c-.1614805 0-.2645834-.094422-.2645834-.2645833v-.2645833c0-.2076371.087051-.2645834.2645834-.2645834z" fill="#fff"/></svg>