<svg height="14" width="14" xmlns="http://www.w3.org/2000/svg"><path d="m6.3339845 1.000434c-.341797.00684-.3964845.0625-.8339845.5l-2 2c-.5.5-.5.5-1 .5h-1.5c-.5 0-1 .440207-1 1v3.9999998c0 .5.5 1.0000002 1 1.0000002h1.5c.5 0 .5 0 1 .5l2 2c.5.5.5.5 1 .5h.5v-12h-.5c-.0625 0-.1172-.0009765-.1660155 0zm4.6660155 1-1 1c1.417505 1.4175045 2 2.7333335 2 3.9999998 0 1.266665-.582495 2.582495-2 4.0000002l1 1c1.582495-1.582495 2.367188-3.2666652 2.367188-5.0000002 0-1.7333348-.784693-3.4175038-2.367188-4.9999998zm-2 2-1 1c.95875.958755 1.375 1.56111 1.375 1.9999998 0 .4389-.41625 1.04125-1.375 2l1 1.0000002c1.04125-1.0412502 1.703125-1.9388852 1.703125-3.0000002 0-1.0611098-.661875-1.9587508-1.703125-2.9999998z" fill="#fff"/></svg>