<svg height="14" width="14" xmlns="http://www.w3.org/2000/svg"><path d="m2 1-.5.5-.5.5 1.95508 1.95508 4.04492 4.0449199 1 1 1 1 1 1.0000001 1 1 1 1 .5-.5.5-.5-1.0664-1.0664c.95692-1.2647501 1.43359-2.5845301 1.43359-3.9336001 0-1.7333299-.7847-3.4174999-2.36719-4.9999999l-1 1c1.4175 1.4175 2 2.73334 2 3.9999999 0 .94192-.32225 1.9118-1.07031 2.9297l-.98633-.98634c.48-.63464.75976-1.25496.75976-1.94336 0-1.0610999-.66187-1.9587499-1.70312-2.9999999l-1 1c.95875.95876 1.375 1.56111 1.375 1.9999999 0 .2501-.13605.5534-.4297.94531l-1.9453-1.9452999v-5h-.5c-.5 0-.5 0-1 .5l-1.5 1.5zm-1 3c-.5 0-1 .44021-1 1v3.9999999c0 .5.5 1 1 1h1.5c.5 0 .5 0 1 .5000001l2 2c.5.5.5.5 1 .5h.5v-3.0000001z" fill="#fff"/></svg>