<svg height="573" width="680" xmlns="http://www.w3.org/2000/svg" xmlns:xlink="http://www.w3.org/1999/xlink"><filter id="a" color-interpolation-filters="sRGB" height="1.025" width="1.023" x="-.012" y="-.012"><feGaussianBlur stdDeviation=".42"/></filter><linearGradient id="b" gradientUnits="userSpaceOnUse" x1="339.5" x2="339.5" y1="233" y2="573"><stop offset="0" stop-color="#27ab5f"/><stop offset="1" stop-color="#249a56"/></linearGradient><path d="m.001 573h680v-573h-680z" fill="url(#b)"/><path d="m3.23 0-3.23 1.902v2.203l6.973-4.105zm17.977 0v21.063l-21.207-11.61v2.182l19.957 10.935-19.957 10.934v2.182l21.207-11.6v29.434l-21.207-12.487v2.2l20.3 11.967h.266l-.266.158-20.3 11.945v2.203l21.207-12.488v29.442l-21.207-11.606v2.18l19.957 10.936-19.957 10.934v2.182l21.207-11.6v29.447l-21.207-12.499v2.2l20.3 11.966h.104l-20.404 12.082v34.1c6.868-4.292 14.097-8.004 21.207-11.896v29.447l-21.207-12.501v2.203l20.3 11.965h.266l-.266.156-20.3 11.946v2.205l21.207-12.5v29.445l-21.207-11.598v2.18l19.957 10.936-19.957 10.935v2.18l21.207-11.6v29.447l-21.207-12.5v2.203l20.3 11.965h.266l-.266.156-20.3 11.946v2.203l21.207-12.488v29.445l-21.207-11.609v2.182l19.957 10.936-19.957 10.934v2.18l21.207-11.6v29.445l-21.207-12.497v2.203l20.3 11.953h.266l-.266.158-20.3 11.955v2.203l21.207-12.488v29.445l-21.207-11.609v2.182l19.957 10.936-19.957 10.933v2.182l21.207-11.6v29.447l-21.207-12.5v2.2l20.3 11.955h.266l-.266.158-20.3 11.957v2.203l21.207-12.488v29.443l-21.207-11.607v2.18l19.957 10.936-19.957 10.934v2.182l21.207-11.6v29.447l-21.207-12.499v2.2l20.3 11.966h.104l-20.404 12.082v34.1c6.868-4.292 14.097-8.004 21.207-11.896v29.447l-21.207-12.501v2.203l20.3 11.965h.266l-.266.156-20.3 11.946v2.205l21.207-12.5v29.445l-21.207-11.598v2.18l19.957 10.936-19.957 10.935v2.18l21.207-11.6v25.715h30.826v-9.96l16.912 9.96h3.74l-19.6-11.54 25.9-14.186v25.726h1.928v-25.725l25.912 14.186-19.571 11.539h3.742l16.9-9.96v9.96h30.828v-25.725l25.912 14.186-19.58 11.54h3.742l16.9-9.96v9.959h1.926v-9.96l16.912 9.96h3.74l-19.6-11.54 25.9-14.186v25.726h1.928v-25.725l25.914 14.186-19.564 11.539h3.744l16.9-9.96v9.96h1.926v-9.96l16.9 9.96h3.744l-19.594-11.54 25.914-14.186v25.726h1.926v-25.725l25.912 14.186-19.572 11.539h3.742l16.912-9.96v9.96h1.924v-9.96l16.912 9.96h3.742l-19.592-11.54 25.912-14.186v25.726h1.926v-25.725l25.914 14.186-19.593 11.539h3.744l16.9-9.96v9.96h1.926v-9.96l16.9 9.96h3.744l-19.594-11.54 25.914-14.186v25.726h1.926v-25.725l24.654 14.926-18.334 10.8h3.74l16.387-9.65.527.34v9.309h1.926v-9.96l16.9 9.96h3.744l-19.594-11.54 25.914-14.186v25.726h1.924v-25.725l25.914 14.186-19.562 11.539h3.744l16.9-9.96v9.96h1.926v-9.96l16.912 9.96h3.742l-19.592-11.54 25.912-14.186v25.726h1.926v-25.725l25.914 14.186-19.583 11.539h3.744l16.9-9.96v9.96h1.926v-9.96l16.9 9.96h3.744l-19.594-11.54 25.914-14.186v25.726h1.928v-25.725l25.9 14.186-19.6 11.54h3.74l16.9-9.96v9.959h1.928v-9.96l16.9 9.96h3.742l-19.592-11.54 25.912-14.186v25.726h30.828v-9.96l16.9 9.96h3.742l-19.592-11.54 25.912-14.186v25.726h1.928v-25.725l21.136 11.525v-2.182l-19.816-10.857 19.816-10.849v-2.182l-21.064 11.53v-29.445l21.064 12.4v-2.207l-20.424-12.008h.266l20.158-11.88v-2.205l-21.064 12.408v-29.447l21.064 11.532v-2.182l-19.816-10.857 19.816-10.857v-2.182l-21.064 11.53v-29.445l21.064 12.409v-2.207l-20.424-12.017h.266l20.158-11.88v-2.203l-21.064 12.406v-29.447l21.064 11.532v-2.182l-19.816-10.857 19.816-10.869v-2.182l-21.064 11.53v-29.443l21.064 12.419v-2.205l-20.424-12.03h.266l20.158-11.871v-2.203l-21.064 12.406v-29.447l21.064 11.533v-2.182l-19.816-10.855 19.816-10.857v-2.184l-21.064 11.533v-29.445l21.064 12.406v-2.205l-20.424-12.03h.266l20.158-11.868v-2.205l-21.064 12.406v-29.445l21.064 11.524v-2.182l-19.816-10.857 19.816-10.848v-2.184l-21.064 11.533v-29.445l21.064 12.406v-2.205l-20.424-12.027h.266l20.158-11.871v-2.205l-21.064 12.408v-29.447l21.064 11.524v-2.182l-19.816-10.857 19.816-10.849v-2.182l-21.064 11.53v-29.445l21.064 12.4v-2.207l-20.424-12.008h.266l20.158-11.88v-2.205l-21.064 12.408v-29.447l21.064 11.532v-2.182l-19.816-10.857 19.816-10.857v-2.182l-21.064 11.53v-29.445l21.064 12.409v-2.207l-20.424-12.017h.266l20.158-11.88v-2.203l-21.064 12.406v-29.448l21.064 11.533v-2.182l-19.816-10.856 19.816-10.87v-2.18l-21.064 11.53v-29.432l21.064 12.406v-2.204l-20.424-12.02h.266l20.158-11.882v-2.203l-21.064 12.405v-29.446l21.064 11.533v-2.182l-19.816-10.855 19.816-10.857v-2.183l-21.064 11.533v-21.063h-1.928v21.063l-25.912-14.186 11.677-6.877h-3.742l-8.996 5.3v-5.3h-1.928v5.3l-9.007-5.3h-3.742l11.678 6.877-25.912 14.186v-21.063h-1.928v21.063l-25.9-14.186 11.677-6.877h-3.742l-8.996 5.3v-5.3h-1.928v5.3l-9.007-5.3h-3.74l11.676 6.877-25.9 14.186v-21.063h-1.928v21.063l-25.914-14.186 11.678-6.877h-3.742l-8.996 5.3v-5.3h-1.926v5.3l-8.996-5.3h-3.742l11.678 6.877-25.914 14.186v-21.063h-1.926v21.063l-25.913-14.186 11.678-6.877h-3.742l-8.998 5.3v-5.3h-1.926v5.3l-9.007-5.3h-3.742l11.678 6.877-25.914 14.186v-21.063h-1.924v21.063l-25.903-14.186 11.677-6.877h-3.742l-8.996 5.3v-5.3h-1.926v5.3l-9.008-5.3h-3.742l11.678 6.877-25.912 14.186v-21.063h-1.926v21.063l-25.904-14.186 11.676-6.877h-3.742l-8.996 5.3v-5.3h-1.926v5.3l-9.006-5.3h-3.742l11.678 6.877-25.914 14.186v-21.063h-1.926v21.063l-25.9-14.186 11.677-6.877h-3.742l-8.998 5.3v-5.3h-1.924v5.3l-9-5.3h-3.742l11.678 6.877-25.912 14.186v-21.063h-1.926v21.063l-25.913-14.186 11.678-6.877h-3.742l-8.996 5.3v-5.3h-1.926v5.3l-8.996-5.3h-3.742l11.678 6.877-25.914 14.186v-21.063h-1.928v21.063l-25.9-14.186 11.664-6.877h-3.74l-8.998 5.3v-5.3h-1.926v5.3l-9.006-5.3h-3.742l11.678 6.877-25.912 14.186v-21.063h-1.928v21.063l-25.9-14.186 11.676-6.877h-3.742l-8.996 5.3v-5.3h-1.928v5.3l-9.006-5.3h-3.742l11.678 6.877-25.912 14.186v-21.063h-1.928v21.063l-25.9-14.186 11.674-6.877h-3.74l-8.998 5.3v-5.3h-1.928v5.3l-9.004-5.3h-3.742l11.678 6.877-25.912 14.186v-21.063h-1.926zm651.963 0 6.83 4.023v-2.205l-3.1-1.818h-3.74zm-623.065 8.475v28.187l-25.722-14.092zm1.928 0 25.725 14.095-25.725 14.092zm55.873 0v28.187l-25.724-14.092 25.725-14.096zm1.928 0 25.723 14.096-25.723 14.092zm55.873 0v28.187l-25.725-14.092 25.725-14.096zm1.926 0 25.725 14.096-25.725 14.092zm55.875 0v28.187l-25.728-14.092 25.727-14.096zm1.926 0 25.726 14.095-25.725 14.092v-28.187zm55.875 0v28.187l-25.727-14.092 25.718-14.095zm1.924 0 25.725 14.096-25.725 14.092zm55.875 0v28.187l-25.723-14.092 25.723-14.096zm1.926 0 25.726 14.095-25.725 14.092v-28.187zm55.875 0v28.187l-25.725-14.092 25.716-14.096zm1.926 0 25.723 14.096-25.723 14.092zm55.873 0v28.187l-25.724-14.092 25.723-14.096zm1.926 0 25.726 14.095-25.725 14.092v-28.187zm55.875 0v28.187l-25.726-14.092 25.725-14.096zm1.926 0 25.723 14.096-25.723 14.092zm55.873 0v28.187l-25.724-14.092 25.723-14.096zm1.928 0 25.724 14.095-25.725 14.092v-28.187zm55.873 0v28.187l-25.726-14.092 25.725-14.096zm1.928 0 25.723 14.095-25.723 14.092zm-606.902 15.6 25.912 14.188-25.912 15.26v-29.45zm55.873 0v29.445l-25.9-15.26 25.9-14.187zm1.928 0 25.912 14.188-25.912 15.26v-29.45zm55.873 0v29.445l-25.912-15.26 25.912-14.187zm1.928 0 25.912 14.188-25.912 15.26v-29.45zm55.87 0v29.445l-25.9-15.26 25.9-14.187zm1.928 0 25.914 14.188-25.914 15.26v-29.45zm55.875 0v29.445l-25.914-15.26 25.904-14.187zm1.926 0 25.912 14.188-25.912 15.26v-29.45zm55.873 0v29.445l-25.912-15.26 25.912-14.187zm1.926 0 25.914 14.188-25.914 15.26v-29.45zm57.8 0 25.912 14.188-25.912 15.26v-29.45zm55.875 0v29.445l-25.914-15.26 25.904-14.187zm1.924 0 25.914 14.188-25.914 15.26v-29.45zm55.875 0v29.445l-25.912-15.26 25.912-14.187zm1.926 0 25.914 14.188-25.914 15.26v-29.45zm57.803 0 25.9 14.188-25.9 15.26v-29.45zm55.87 0v29.445l-25.912-15.26 25.912-14.187zm1.928 0 25.912 14.188-25.912 15.26v-29.45zm55.873 0v29.445l-25.912-15.26 25.912-14.187zm-606.904 15.765v30.857l-26.33-15.497h.268l26.063-15.35zm1.928 0 26.067 15.36h.266l-.266.158-26.066 15.35v-30.868zm55.873 0v30.857l-26.332-15.497h.27l26.063-15.35zm1.928 0 26.064 15.35h.266l-.266.158-26.064 15.35zm55.873 0v30.52l-.193.225-26.14-15.395h.268l26.064-15.35zm1.926 0 26.067 15.36h.266l-.266.158-26.066 15.35v-30.868zm55.875 0v30.857l-26.334-15.497h.27l26.064-15.35zm1.926 0 26.064 15.35h.268l-26.332 15.508zm55.875 0v30.857l-26.334-15.497h.268l26.066-15.35zm1.924 0 26.067 15.36h.266l-.266.158-26.066 15.35v-30.868zm55.875 0v30.857l-26.333-15.497h.268l26.064-15.35zm57.8 0v30.857l-26.334-15.497h.268l26.066-15.35zm1.926 0 26.064 15.35h.266l-.266.158-26.064 15.35zm55.873 0v30.857l-26.332-15.497h.268l26.064-15.35zm1.926 0 26.067 15.36h.268l-26.334 15.508v-30.868zm55.875 0-.12 30.8-26.2-15.44h.268l26.044-15.36zm57.8 0v30.857l-26.33-15.508h.266l26.064-15.35zm1.928 0 26.064 15.36h.268l-26.332 15.508zm55.873 0v30.857l-26.334-15.497h.268l26.064-15.35zm1.928 0 26.063 15.36h.27l-.27.158-26.062 15.35v-30.868zm-606.904 17.178 25.912 15.26-25.912 14.182zm55.873 0v29.442l-25.9-14.184 25.9-15.26zm1.928 0 25.912 15.26-25.912 14.182zm55.873 0v29.442l-25.912-14.184 25.912-15.26zm1.928 0 25.912 15.26-25.912 14.184zm55.87 0v29.442l-25.832-14.23 25.832-15.213zm1.928 0 25.914 15.26-25.914 14.184zm55.875 0v29.442l-25.914-14.184 25.914-15.26zm1.926 0 25.912 15.26-25.912 14.184zm55.873 0v29.442l-25.912-14.184 25.912-15.26zm1.926 0 25.914 15.26-25.914 14.184zm55.875 0v29.442l-25.914-14.184 25.914-15.26zm1.926 0 25.912 15.26-25.912 14.184zm55.875 0v29.442l-25.914-14.184 25.914-15.26zm1.924 0 25.914 15.26-25.914 14.184zm55.875 0v29.442l-25.912-14.184 25.912-15.26zm1.926 0 25.914 15.26-25.914 14.184zm55.875 0v29.442l-25.914-14.184 25.914-15.26zm1.928 0 25.9 15.26-25.9 14.184zm55.87 0v29.442l-25.912-14.184 25.912-15.26zm1.928 0 25.912 15.26-25.912 14.184zm55.873 0v29.442l-25.912-14.184 25.912-15.26zm-606.903 16.857v28.188l-25.722-14.093 25.723-14.094zm1.928 0 25.725 14.095-25.725 14.094v-28.2zm55.873 0v28.188l-25.724-14.093 25.725-14.094zm1.928 0 25.723 14.094-25.723 14.094zm113.674 0v28.188l-25.728-14.093 25.727-14.094zm1.926 0 25.726 14.095-25.725 14.094v-28.19zm55.875 0v28.188l-25.727-14.093 25.727-14.094zm1.924 0 25.725 14.094-25.725 14.094zm55.875 0v28.188l-25.723-14.093 25.723-14.094zm1.926 0 25.726 14.095-25.725 14.094v-28.19zm55.875 0v28.188l-25.725-14.093 25.725-14.094zm1.926 0 25.723 14.094-25.723 14.094zm55.873 0v28.188l-25.724-14.093 25.723-14.094zm1.926 0 25.726 14.095-25.725 14.094v-28.19zm55.875 0v28.188l-25.726-14.093 25.725-14.094zm1.926 0 25.723 14.094-25.723 14.094zm55.873 0v28.188l-25.724-14.093 25.723-14.094zm1.928 0 25.724 14.095-25.725 14.094v-28.2zm55.873 0v28.188l-25.726-14.093 25.725-14.094zm1.928 0 25.723 14.095-25.723 14.094zm-464.355.014.025 28.174-25.723-14.094 25.697-14.08zm-142.549 15.586 25.912 14.188-25.912 15.26zm55.873 0v29.447l-25.9-15.26 25.9-14.188zm1.928 0 25.912 14.188-25.912 15.26zm55.873 0v29.447l-25.912-15.26 25.912-14.188zm1.928 0 25.912 14.188-25.912 15.26zm57.8 0 25.914 14.188-25.914 15.26zm55.875 0v29.447l-25.914-15.26 25.904-14.188zm1.926 0 25.912 14.188-25.912 15.26zm55.873 0v29.447l-25.912-15.26 25.912-14.188zm1.926 0 25.914 14.188-25.914 15.26zm55.875 0v29.447l-25.914-15.26 25.904-14.188zm1.926 0 25.912 14.188-25.912 15.26zm55.875 0v29.447l-25.914-15.26 25.914-14.188zm1.924 0 25.914 14.188-25.914 15.26zm55.875 0v29.447l-25.912-15.26 25.902-14.188zm1.926 0 25.914 14.188-25.914 15.26zm55.875 0v29.447l-25.914-15.26 25.914-14.188zm1.928 0 25.9 14.188-25.9 15.26zm55.87 0v29.447l-25.912-15.26 25.912-14.188zm1.928 0 25.912 14.188-25.912 15.26zm55.873 0v29.447l-25.912-15.26 25.902-14.188zm-606.905 15.765v30.857l-26.33-15.497h.268l26.063-15.35zm1.928 0 26.067 15.36h.266l-.266.156-26.066 15.352v-30.868zm55.873 0v30.857l-26.332-15.497h.27l26.063-15.35zm1.928 0 26.064 15.35h.266l-.266.156-26.064 15.352zm55.873 0v30.857l-26.332-15.497h.268l26.064-15.35zm1.926 0 25.568 15.8-25.568 15.06zm55.875 0v30.857l-26.334-15.497h.27l26.064-15.35zm1.926 0 26.064 15.35h.268l-.268.156-26.064 15.352zm55.875 0v30.857l-26.334-15.497h.268l26.066-15.35zm1.924 0 26.067 15.36h.266l-.266.156-26.066 15.352v-30.868zm55.875 0v30.857l-26.333-15.497h.268l26.064-15.35zm1.926 0 26.064 15.35h.268l-.268.156-26.064 15.352zm55.875 0v30.857l-26.335-15.497h.268l26.066-15.35zm1.926 0 26.065 15.36h.266l-.266.156-26.064 15.352v-30.868zm55.873 0v30.857l-26.333-15.497h.268l26.064-15.35zm1.926 0 26.066 15.36h.268l-.268.156-26.066 15.352zm55.875 0v30.857l-26.333-15.497h.268l26.064-15.35zm1.926 0 26.065 15.36h.268l-.268.156-26.064 15.352v-30.868zm55.873 0v30.857l-26.33-15.508h.266l26.064-15.35zm1.928 0 26.064 15.36h.102l-26.166 15.508zm55.873 0v30.857l-26.334-15.497h.268l26.064-15.35zm1.928 0 26.063 15.36h.27l-.27.156-26.062 15.352v-30.868zm-606.904 17.176 25.912 15.262-25.912 14.184v-29.445zm55.873 0v29.445l-25.9-14.184 25.9-15.262zm1.928 0 25.912 15.262-25.912 14.184v-29.445zm55.873 0v29.445l-25.912-14.184 25.912-15.262zm1.928 0 25.912 15.262-25.912 14.184v-29.445zm55.87 0v29.445l-25.9-14.184 25.9-15.262zm1.928 0 25.914 15.262-25.914 14.184v-29.445zm55.875 0v29.445l-25.914-14.184 25.914-15.262zm1.926 0 25.912 15.262-25.912 14.184v-29.445zm55.873 0v29.445l-25.912-14.184 25.912-15.262zm1.926 0 25.914 15.262-25.914 14.184v-29.445zm55.875 0v29.445l-25.914-14.184 25.914-15.262zm1.926 0 25.912 15.262-25.912 14.184v-29.445zm55.875 0v29.445l-25.914-14.184 25.914-15.262zm1.924 0 25.914 15.262-25.914 14.184v-29.445zm55.875 0v29.445l-25.912-14.184 25.912-15.262zm1.926 0 25.914 15.262-25.914 14.184v-29.445zm55.875 0v29.445l-25.914-14.184 25.914-15.262zm1.928 0 25.9 15.262-25.9 14.184v-29.445zm57.8 0 25.912 15.262-25.912 14.184v-29.445zm55.873 0v29.445l-25.912-14.184 25.902-15.262zm-606.905 16.857v28.2l-25.722-14.103 25.723-14.096zm1.928 0 25.725 14.096-25.725 14.094v-28.2zm55.873 0v28.2l-25.724-14.103 25.725-14.096zm1.928 0 25.723 14.096-25.723 14.094v-28.2zm55.873 0v28.2l-25.725-14.094 25.725-14.096zm1.926 0 25.725 14.096-25.725 14.094v-28.2zm55.875 0v28.2l-25.728-14.103 25.727-14.096zm1.926 0 25.725 14.096-25.725 14.094v-28.2zm55.875 0v28.2l-25.727-14.094 25.727-14.096zm1.924 0 25.725 14.096-25.725 14.094v-28.2zm55.875 0v28.2l-25.723-14.094 25.723-14.096zm1.926 0 25.725 14.096-25.725 14.094v-28.2zm55.875 0v28.2l-25.725-14.094 25.725-14.096zm1.926 0 25.723 14.096-25.723 14.094v-28.2zm55.873 0v28.2l-25.723-14.094 25.723-14.096zm1.926 0 25.725 14.096-25.725 14.094v-28.2zm55.875 0v28.2l-25.725-14.094 25.725-14.096zm1.926 0 25.723 14.096-25.723 14.094v-28.2zm55.873 0v28.2l-25.723-14.094 25.723-14.096zm57.8 0v28.2l-25.725-14.094 25.725-14.096zm1.928 0 25.723 14.096-25.723 14.094v-28.2zm-606.903 15.602 25.912 14.186-25.912 15.262v-29.447zm55.873 0v29.447l-25.9-15.262 25.9-14.186zm1.928 0 25.912 14.186-25.912 15.262v-29.447zm55.873 0v29.447l-25.912-15.262 25.912-14.186zm1.928 0 25.912 14.186-25.912 15.262v-29.447zm55.87 0v29.447l-25.9-15.262 25.9-14.186zm1.928 0 25.914 14.186-25.914 15.262v-29.447zm55.875 0v29.447l-25.914-15.262 25.914-14.186zm1.926 0 25.912 14.186-25.912 15.262v-29.447zm55.873 0v29.447l-25.912-15.262 25.912-14.186zm1.926 0 25.914 14.186-25.914 15.262v-29.447zm55.875 0v29.447l-25.914-15.262 25.914-14.186zm1.926 0 25.912 14.186-25.912 15.262v-29.447zm55.875 0v29.447l-25.914-15.262 25.914-14.186zm1.924 0 25.914 14.186-25.914 15.262v-29.447zm55.875 0v29.447l-25.912-15.262 25.912-14.186zm1.926 0 25.914 14.186-25.914 15.262v-29.447zm55.875 0v29.447l-25.914-15.262 25.914-14.186zm1.928 0 25.9 14.186-25.9 15.262v-29.447zm55.87 0v29.447l-25.295-14.898c8.046-5.474 16.758-9.875 25.295-14.55zm1.928 0 25.912 14.186-25.912 15.262v-29.447zm55.873 0v29.447l-25.912-15.262 25.912-14.186zm-606.903 15.765v30.857l-26.33-15.497h.268l26.063-15.35zm1.928 0 26.067 15.36h.266l-.266.156-26.066 15.352v-30.868zm55.873 0v30.857l-26.332-15.497h.27l26.063-15.35zm1.928 0 26.064 15.36h.266l-.266.156-26.064 15.352zm55.873 0v30.857l-26.332-15.497h.268l26.064-15.35zm1.926 0 26.067 15.36h.266l-.266.156-26.066 15.352v-30.868zm55.875 0v30.857l-26.334-15.497h.27l26.064-15.35zm1.926 0 26.064 15.36h.268l-.268.156-26.064 15.352zm55.875 0v30.857l-26.334-15.497h.268l26.066-15.35zm1.924 0 26.067 15.36h.266l-.266.156-26.066 15.352v-30.868zm55.875 0v30.857l-26.333-15.497h.268l26.064-15.35zm1.926 0 26.064 15.36h.268l-.268.156-26.064 15.352zm55.875 0v30.857l-26.335-15.497h.268l26.066-15.35zm1.926 0 26.063 15.36h.266l-.266.156-26.064 15.352v-30.868zm55.873 0v30.857l-26.333-15.497h.268l26.064-15.35zm1.926 0 26.066 15.36h.268l-.268.156-26.066 15.352zm55.875 0v30.857l-26.333-15.497h.268l26.064-15.35zm1.926 0 26.063 15.36h.268l-.268.156-26.064 15.352v-30.868zm55.873 0v30.857l-26.331-15.497h.266l26.064-15.35zm1.928 0 26.064 15.36h.268l-.268.156-26.064 15.352zm55.873 0v30.857l-26.334-15.497h.268l26.064-15.35zm1.928 0 26.06 15.36h.27l-.27.156-26.062 15.352v-30.868zm-606.904 17.176 25.912 15.262-25.912 14.184v-29.445zm55.873 0v29.445l-25.9-14.184 25.9-15.262zm1.928 0 25.912 15.262-25.912 14.184v-29.445zm55.873 0v29.445l-25.912-14.184 25.912-15.262zm1.928 0 25.912 15.262-25.912 14.184v-29.445zm55.87 0v29.445l-25.9-14.184 25.9-15.262zm1.928 0 25.914 15.262-25.914 14.184v-29.445zm55.875 0v29.445l-25.914-14.184 25.914-15.262zm1.926 0 25.912 15.262-25.912 14.184v-29.445zm55.873 0v29.445l-25.912-14.184 25.912-15.262zm1.926 0 25.914 15.262-25.914 14.184v-29.445zm55.875 0v29.445l-25.914-14.184 25.914-15.262zm57.8 0v29.445l-25.914-14.184 25.914-15.262zm1.924 0 25.914 15.262-25.914 14.184v-29.445zm55.875 0v29.445l-25.912-14.184 25.912-15.262zm1.926 0 25.914 15.262-25.914 14.184v-29.445zm55.875 0v29.445l-25.914-14.184 25.914-15.262zm1.928 0 25.9 15.262-25.9 14.184v-29.445zm55.87 0v29.445l-25.912-14.184 25.912-15.262zm1.928 0 25.912 15.262-25.912 14.184v-29.445zm55.873 0v29.445l-25.912-14.184 25.912-15.262zm-606.902 16.858v28.2l-25.722-14.104 25.723-14.096zm1.928 0 25.725 14.096-25.725 14.094v-28.2zm55.873 0v28.2l-25.724-14.104 25.725-14.096zm1.928 0 25.723 14.096-25.723 14.094v-28.2zm55.873 0v28.2l-25.725-14.094 25.725-14.096zm1.926 0 25.725 14.096-25.725 14.094v-28.2zm55.875 0v28.2l-25.728-14.104 25.727-14.096zm1.926 0 25.725 14.096-25.725 14.094v-28.2zm55.875 0v28.2l-25.727-14.094 25.727-14.096zm1.924 0 25.725 14.096-25.725 14.094v-28.2zm55.875 0v28.2l-25.723-14.094 25.723-14.096zm1.926 0 25.725 14.096-25.725 14.094v-28.2zm57.8 0 25.723 14.096-25.723 14.094v-28.2zm55.873 0v28.2l-25.723-14.094 25.723-14.096zm1.926 0 25.725 14.096-25.725 14.094v-28.2zm55.875 0v28.2l-25.725-14.094 25.725-14.096zm1.926 0 25.723 14.096-25.723 14.094v-28.2zm55.873 0v28.2l-25.723-14.094 25.723-14.096zm1.928 0 25.725 14.096-25.725 14.094v-28.2zm55.873 0v28.2l-25.725-14.094 25.725-14.096zm1.928 0 25.723 14.096-25.723 14.094v-28.2zm-551.03 15.602v29.447l-25.9-15.262 25.9-14.186zm1.928 0 25.912 14.186-25.912 15.262v-29.447zm57.8 0 25.912 14.186-25.912 15.262v-29.447zm55.87 0v29.447l-25.9-15.262 25.9-14.186zm1.928 0 25.914 14.186-25.914 15.262v-29.447zm55.875 0v29.447l-25.914-15.262 25.914-14.186zm1.926 0 25.912 14.186-25.912 15.262v-29.447zm55.873 0v29.447l-25.912-15.262 25.912-14.186zm1.926 0 25.914 14.186-25.914 15.262v-29.447zm55.875 0v29.447l-25.914-15.262 25.914-14.186zm1.926 0 24.654 14.926-24.654 14.52v-29.447zm55.875 0v29.447l-25.914-15.262 25.914-14.186zm1.924 0 25.914 14.186-25.914 15.262v-29.447zm55.875 0v29.447l-25.912-15.262 25.912-14.186zm1.926 0 25.914 14.186-25.914 15.262v-29.447zm55.875 0v29.447l-25.914-15.262 25.914-14.186zm1.928 0 25.9 14.186-25.9 15.262v-29.447zm55.87 0v29.447l-25.912-15.262 25.912-14.186zm57.8 0v29.447l-25.912-15.262 25.912-14.186zm-604.973 15.764 26.067 15.36h.266l-.266.156-26.066 15.352v-30.868zm55.873 0v30.857l-26.332-15.497h.27l26.063-15.35zm57.8 0v30.857l-26.332-15.508h.268l26.064-15.35zm1.926 0 26.066 15.35h.266l-.266.156-26.066 15.352zm55.875 0v30.857l-26.334-15.508h.27l26.064-15.35zm1.926 0 26.064 15.35h.268l-.268.156-26.064 15.352zm55.875 0v30.857l-26.334-15.508h.268l26.066-15.35zm1.924 0 26.066 15.35h.266l-.266.156-26.066 15.352zm55.875 0v30.857l-26.332-15.508h.268l26.064-15.35zm1.926 0 26.064 15.35h.268l-.268.156-26.064 15.352zm57.8 0 26.064 15.35h.266l-.266.156-26.064 15.352zm55.873 0v30.857l-26.332-15.508h.268l26.064-15.35zm1.926 0 26.066 15.35h.268l-.268.156-26.066 15.352zm55.875 0v30.857l-26.332-15.508h.268l26.064-15.35zm1.926 0 26.064 15.35h.268l-.268.156-26.064 15.352zm55.873 0v30.857l-26.33-15.508h.266l26.064-15.35zm1.928 0 26.064 15.35h.268l-.268.156-26.064 15.352zm57.8 0 26.063 15.35h.27l-.27.156-26.062 15.352v-30.858zm-233.654.3.527.34v30.2l-26.334-15.508h.268l25.54-15.04zm-373.247 16.877 25.912 15.26-25.912 14.186v-29.445zm55.873 0v29.445l-25.9-14.186 25.9-15.26zm1.928 0 25.912 15.26-25.912 14.186v-29.445zm55.873 0v29.445l-25.912-14.186 25.912-15.26zm1.928 0 25.912 15.26-25.912 14.186v-29.445zm55.87 0v29.445l-25.9-14.186 25.9-15.26zm1.928 0 25.914 15.26-25.914 14.186v-29.445zm55.875 0v29.445l-25.914-14.186 25.914-15.26zm1.926 0 25.725 15.148-3.408 2.08-22.316 12.217v-29.445zm55.873 0v29.445l-25.912-14.186 25.912-15.26zm1.926 0 25.914 15.26-25.914 14.186v-29.445zm55.875 0v29.445l-25.914-14.186 25.914-15.26zm1.926 0 25.912 15.26-25.912 14.186v-29.445zm55.875 0v29.445l-25.914-14.186 25.914-15.26zm1.924 0 25.914 15.26-25.914 14.186v-29.445zm55.875 0v29.445l-25.912-14.186 25.912-15.26zm1.926 0 25.914 15.26-25.914 14.186v-29.445zm55.875 0v29.445l-25.914-14.186 25.914-15.26zm1.928 0 25.9 15.26-25.9 14.186v-29.445zm55.87 0v29.445l-25.912-14.186 25.912-15.26zm1.928 0 25.912 15.26-25.912 14.186v-29.445zm55.873 0v29.445l-25.912-14.186 25.912-15.26zm-606.903 16.857v28.2l-25.722-14.104 25.723-14.096zm1.928 0 25.725 14.096-25.725 14.094v-28.2zm55.873 0v28.2l-25.724-14.104 25.725-14.096zm1.928 0 25.723 14.096-25.723 14.094v-28.2zm55.873 0v28.2l-25.725-14.094 25.725-14.096zm1.926 0 25.725 14.096-25.725 14.094v-28.2zm55.875 0v28.2l-25.728-14.104 25.727-14.096zm1.926 0 25.725 14.096-25.725 14.094v-28.2zm57.8 0 25.725 14.096-25.725 14.094v-28.2zm55.875 0v28.2l-25.723-14.094 25.723-14.096zm1.926 0 25.725 14.096-25.725 14.094v-28.2zm55.875 0v28.2l-25.725-14.094 25.725-14.096zm1.926 0 25.723 14.096-25.723 14.094v-28.2zm55.873 0v28.2l-25.723-14.094 25.723-14.096zm1.926 0 25.725 14.096-25.725 14.094v-28.2zm55.875 0v28.2l-25.725-14.094 25.725-14.096zm1.926 0 25.723 14.096-25.723 14.094v-28.2zm55.873 0v28.2l-25.723-14.094 25.723-14.096zm1.928 0 25.725 14.096-25.725 14.094v-28.2zm55.873 0v28.2l-25.725-14.094 25.725-14.096zm1.928 0 25.723 14.096-25.723 14.094v-28.2zm-606.905 15.602 25.912 14.186-25.912 15.26v-29.445zm55.873 0v29.445l-25.9-15.26 25.9-14.186zm1.928 0 25.912 14.186-25.912 15.26v-29.445zm55.873 0v29.445l-25.912-15.26 25.912-14.186zm1.928 0 25.912 14.186-25.912 15.26v-29.445zm55.87 0v29.445l-25.9-15.26 25.9-14.186zm1.928 0 25.914 14.186-25.914 15.26v-29.445zm55.875 0v29.445l-25.914-15.26 25.914-14.186zm57.8 0v29.445l-25.912-15.26 25.912-14.186zm1.926 0 25.914 14.186-25.914 15.26v-29.445zm55.875 0v29.445l-25.914-15.26 25.914-14.186zm1.926 0 25.912 14.186-25.912 15.26v-29.445zm55.875 0v29.445l-25.914-15.26 25.914-14.186zm1.924 0 25.914 14.186-25.914 15.26v-29.445zm55.875 0v29.445l-25.912-15.26 25.912-14.186zm1.926 0 25.914 14.186-25.914 15.26v-29.445zm55.875 0v29.445l-25.914-15.26 25.914-14.186zm1.928 0 25.9 14.186-25.9 15.26v-29.445zm55.87 0v29.445l-25.912-15.26 25.912-14.186zm1.928 0 25.912 14.186-25.912 15.26v-29.445zm55.873 0v29.445l-25.912-15.26 25.912-14.186zm-606.904 15.764v30.86l-26.33-15.5h.268l26.063-15.348zm1.928 0 26.067 15.36h.266l-.266.158-26.067 15.342zm55.873 0v30.86l-26.332-15.5h.27l26.063-15.348zm1.928 0 26.064 15.348h.266l-.266.158-26.064 15.352zm55.873 0v30.86l-26.332-15.5h.268l26.064-15.348zm1.926 0 26.067 15.36h.266l-.266.158-26.066 15.352v-30.86zm55.875 0v30.86l-26.334-15.5h.27l26.064-15.348zm1.926 0 26.064 15.348h.268l-26.332 15.5zm55.875 0v30.86l-26.334-15.5h1.254l25.08-15.348zm1.924 0 26.067 15.36h.266l-.266.158-26.066 15.352v-30.86zm55.875 0v30.86l-26.332-15.5h.268l26.064-15.348zm1.926 0 26.064 15.348h.268l-26.332 15.5zm55.875 0v30.86l-26.334-15.5h.268l26.066-15.348zm1.926 0 26.064 15.348h.266l-.266.158-26.064 15.352zm55.873 0v30.86l-26.332-15.5h.268l26.064-15.348zm1.926 0 26.066 15.36h.268l-26.334 15.5zm55.875 0v30.86l-26.332-15.5h.268l26.064-15.348zm1.926 0 26.064 15.348h.268l-26.332 15.5zm55.873 0v30.86l-26.33-15.5h.266l26.064-15.348zm1.928 0 26.064 15.36h.268l-26.332 15.5zm55.873 0v30.86l-26.332-15.5h.268l26.064-15.348zm1.928 0 26.063 15.348h.27l-.27.158-26.062 15.352v-30.858zm-606.904 17.177 25.912 15.26-25.912 14.186v-29.445zm55.873 0v29.445l-25.9-14.186 25.9-15.26zm1.928 0 25.912 15.26-25.912 14.186v-29.445zm55.873 0v29.445l-25.912-14.186 25.912-15.26zm1.928 0 25.912 15.26-25.912 14.186v-29.445zm55.87 0v29.445l-25.9-14.186 25.9-15.26zm1.928 0 25.914 15.26-25.914 14.186v-29.445zm55.875 0v29.445l-25.914-14.186 25.914-15.26zm1.926 0 25.912 15.26-25.912 14.186v-29.445zm55.873 0v29.445l-25.912-14.186 25.912-15.26zm1.926 0 25.914 15.26-25.914 14.186v-29.445zm55.875 0v29.445l-25.914-14.186 25.914-15.26zm1.926 0 25.912 15.26-25.912 14.186v-29.445zm55.875 0v29.445l-25.914-14.186 25.914-15.26zm1.924 0 25.914 15.26-25.914 14.186v-29.445zm55.875 0v29.445l-25.912-14.186 25.912-15.26zm1.926 0 25.914 15.26-25.914 14.186v-29.445zm55.875 0v29.445l-25.914-14.186 25.914-15.26zm1.928 0 25.9 15.26-25.9 14.186v-29.445zm55.87 0v29.445l-25.912-14.186 25.912-15.26zm1.928 0 25.912 15.26-25.912 14.186v-29.445zm55.873 0v29.445l-25.912-14.186 25.912-15.26zm-606.903 16.858v28.188l-25.722-14.093 25.723-14.096zm1.928 0 25.725 14.096-25.725 14.092v-28.187zm55.873 0v28.188l-25.724-14.093 25.725-14.096zm1.928 0 25.723 14.096-25.723 14.092v-28.187zm55.873 0v28.188l-25.725-14.092zm1.926 0 25.725 14.096-25.725 14.092v-28.187zm55.875 0v28.188l-25.728-14.093 25.727-14.096zm1.926 0 25.725 14.096-25.725 14.092v-28.187zm55.875 0v28.188l-25.727-14.092zm1.924 0 25.725 14.096-25.725 14.092v-28.187zm55.875 0v28.188l-25.723-14.092zm1.926 0 25.725 14.096-25.725 14.092v-28.187zm55.875 0v28.188l-25.725-14.092zm1.926 0 25.723 14.096-25.723 14.092v-28.187zm55.873 0v28.188l-25.723-14.092zm1.926 0 25.725 14.096-25.725 14.092v-28.187zm55.875 0v28.188l-25.725-14.092zm1.926 0 25.723 14.096-25.723 14.092v-28.187zm55.873 0v28.188l-25.723-14.092zm1.928 0 25.725 14.096-25.725 14.092v-28.187zm55.873 0v28.188l-25.725-14.092zm1.928 0 25.723 14.096-25.723 14.092v-28.187zm-606.902 15.6 25.912 14.188-25.912 15.26v-29.447zm55.873 0v29.447l-25.9-15.26zm1.928 0 25.912 14.188-25.912 15.26v-29.447zm55.873 0v29.447l-25.912-15.26zm1.928 0 25.912 14.188-25.912 15.26v-29.447zm55.87 0v29.447l-25.9-15.26zm1.928 0 25.914 14.188-25.914 15.26v-29.447zm55.875 0v29.447l-25.914-15.26zm1.926 0 25.912 14.188-25.912 15.26v-29.447zm55.873 0v29.447l-25.912-15.26zm1.926 0 25.914 14.188-25.914 15.26v-29.447zm57.8 0 25.912 14.188-25.912 15.26v-29.447zm55.875 0v29.447l-25.914-15.26zm1.924 0 25.914 14.188-25.914 15.26v-29.447zm55.875 0v29.447l-25.912-15.26zm1.926 0 25.914 14.188-25.914 15.26v-29.447zm57.803 0 25.9 14.188-25.9 15.26v-29.447zm55.87 0v29.447l-25.912-15.26zm1.928 0 25.912 14.188-25.912 15.26v-29.447zm55.873 0v29.447l-25.912-15.26zm-606.904 15.765v30.857l-26.33-15.508h.268l26.063-15.35zm1.928 0 26.067 15.36h.266l-.266.158-26.066 15.35v-30.868zm55.873 0v30.857l-26.332-15.497h.27l26.063-15.35zm1.928 0 26.064 15.35h.266l-.266.158-26.064 15.35zm55.873 0v30.52l-.193.225-26.14-15.395h.268l26.064-15.35zm1.926 0 26.067 15.36h.266l-.266.158-26.066 15.35v-30.868zm55.875 0v30.857l-26.334-15.508h.27l26.064-15.35zm1.926 0 26.064 15.35h.268l-26.332 15.508zm55.875 0v30.857l-26.334-15.508h.268l26.066-15.35zm1.924 0 26.067 15.36h.266l-.266.158-26.066 15.35v-30.868zm55.875 0v30.857l-26.332-15.508h.268l26.064-15.35zm57.8 0v30.857l-26.334-15.508h.268l26.066-15.35zm1.926 0 26.064 15.35h.266l-.266.158-26.064 15.35zm55.873 0v30.857l-26.332-15.508h.268l26.064-15.35zm1.926 0 26.067 15.36h.268l-26.334 15.508v-30.868zm55.875 0-.12 30.8-26.2-15.44h.268l26.064-15.35zm57.8 0v30.857l-26.33-15.508h.266l26.064-15.35zm1.928 0 26.064 15.36h.268l-26.332 15.508zm55.873 0v30.857l-26.332-15.508h.268l26.064-15.35zm1.928 0 26.063 15.36h.27l-.27.158-26.062 15.35v-30.868zm-606.904 17.178 25.912 15.26-25.912 14.184v-29.442zm55.873 0v29.443l-25.9-14.184 25.9-15.26zm1.928 0 25.912 15.26-25.912 14.184v-29.442zm55.873 0v29.443l-25.912-14.184 25.912-15.26zm1.928 0 25.912 15.26-25.912 14.184v-29.442zm55.87 0v29.443l-25.832-14.23zm1.928 0 25.914 15.26-25.914 14.184v-29.442zm55.875 0v29.443l-25.914-14.184 25.914-15.26zm1.926 0 25.912 15.26-25.912 14.184v-29.442zm55.873 0v29.443l-25.912-14.184 25.912-15.26zm1.926 0 25.914 15.26-25.914 14.184v-29.442zm55.875 0v29.443l-25.914-14.184 25.914-15.26zm1.926 0 25.912 15.26-25.912 14.184v-29.442zm55.875 0v29.443l-25.914-14.184 25.914-15.26zm1.924 0 25.914 15.26-25.914 14.184v-29.442zm55.875 0v29.443l-25.912-14.184 25.912-15.26zm1.926 0 25.914 15.26-25.914 14.184v-29.442zm55.875 0v29.443l-25.914-14.184 25.914-15.26zm1.928 0 25.9 15.26-25.9 14.184v-29.442zm55.87 0v29.443l-25.912-14.184 25.912-15.26zm1.928 0 25.912 15.26-25.912 14.184v-29.442zm55.873 0v29.443l-25.912-14.184 25.912-15.26zm-606.903 16.857v28.188l-25.722-14.093 25.723-14.094zm1.928 0 25.725 14.094-25.725 14.094v-28.187zm55.873 0v28.188l-25.724-14.093 25.725-14.094zm1.928 0 25.723 14.094-25.723 14.094v-28.187zm113.674 0v28.188l-25.728-14.093 25.727-14.094zm1.926 0 25.725 14.094-25.725 14.094v-28.187zm55.875 0v28.188l-25.727-14.094zm1.924 0 25.725 14.094-25.725 14.094v-28.187zm55.875 0v28.188l-25.723-14.094zm1.926 0 25.725 14.094-25.725 14.094v-28.187zm55.875 0v28.188l-25.725-14.094zm1.926 0 25.723 14.094-25.723 14.094v-28.187zm55.873 0v28.188l-25.723-14.094zm1.926 0 25.725 14.094-25.725 14.094v-28.187zm55.875 0v28.188l-25.725-14.094zm1.926 0 25.723 14.094-25.723 14.094v-28.187zm55.873 0v28.188l-25.723-14.094zm1.928 0 25.725 14.094-25.725 14.094v-28.187zm55.873 0v28.188l-25.725-14.094zm1.928 0 25.723 14.094-25.723 14.094v-28.187zm-464.355.014.025 28.174-25.723-14.094 25.697-14.08zm-142.55 15.586 25.912 14.188-25.912 15.26v-29.447zm55.873 0v29.447l-25.9-15.26zm1.928 0 25.912 14.188-25.912 15.26v-29.447zm55.873 0v29.447l-25.912-15.26zm1.928 0 25.912 14.188-25.912 15.26v-29.447zm57.8 0 25.914 14.188-25.914 15.26v-29.447zm55.875 0v29.447l-25.914-15.26zm1.926 0 25.912 14.188-25.912 15.26v-29.447zm55.873 0v29.447l-25.912-15.26zm1.926 0 25.914 14.188-25.914 15.26v-29.447zm55.875 0v29.447l-25.914-15.26 25.905-14.187zm1.926 0 25.912 14.188-25.912 15.26v-29.447zm55.875 0v29.447l-25.914-15.26zm1.924 0 25.914 14.188-25.914 15.26v-29.447zm55.875 0v29.447l-25.912-15.26zm1.926 0 25.914 14.188-25.914 15.26v-29.447zm55.875 0v29.447l-25.914-15.26zm1.928 0 25.9 14.188-25.9 15.26v-29.447zm55.87 0v29.447l-25.912-15.26zm1.928 0 25.912 14.188-25.912 15.26v-29.447zm55.873 0v29.447l-25.912-15.26 25.903-14.187zm-606.904 15.765v30.857l-26.33-15.497h.268l26.063-15.35zm1.928 0 26.067 15.36h.266l-.266.156-26.066 15.352v-30.868zm55.873 0v30.857l-26.332-15.497h.27l26.063-15.35zm1.928 0 26.064 15.35h.266l-.266.156-26.064 15.352zm55.873 0v30.857l-26.332-15.497h.268l26.064-15.35zm1.926 0 25.568 15.8-25.568 15.06zm55.875 0v30.857l-26.334-15.497h.27l26.064-15.35zm1.926 0 26.064 15.35h.268l-.268.156-26.064 15.352zm55.875 0v30.857l-26.334-15.497h.268l26.066-15.35zm1.924 0 26.067 15.36h.266l-.266.156-26.066 15.352v-30.868zm55.875 0v30.857l-26.333-15.497h.268l26.064-15.35zm1.926 0 26.064 15.35h.268l-.268.156-26.064 15.352zm55.875 0v30.857l-26.335-15.497h.268l26.066-15.35zm1.926 0 26.065 15.36h.266l-.266.156-26.064 15.352v-30.868zm55.873 0v30.857l-26.333-15.497h.268l26.064-15.35zm1.926 0 26.066 15.36h.268l-.268.156-26.066 15.352zm55.875 0v30.857l-26.333-15.497h.268l26.064-15.35zm1.926 0 26.065 15.36h.268l-.268.156-26.064 15.352v-30.868zm55.873 0v30.857l-26.33-15.508h.266l26.064-15.35zm1.928 0 26.064 15.36h.102l-26.166 15.508zm55.873 0v30.857l-26.334-15.497h.268l26.064-15.35zm1.928 0 26.063 15.36h.27l-.27.156-26.062 15.352v-30.868zm-606.904 17.176 25.912 15.262-25.912 14.184v-29.445zm55.873 0v29.445l-25.9-14.184 25.9-15.262zm1.928 0 25.912 15.262-25.912 14.184v-29.445zm55.873 0v29.445l-25.912-14.184 25.912-15.262zm1.928 0 25.912 15.262-25.912 14.184v-29.445zm55.87 0v29.445l-25.9-14.184 25.9-15.262zm1.928 0 25.914 15.262-25.914 14.184v-29.445zm55.875 0v29.445l-25.914-14.184 25.914-15.262zm1.926 0 25.912 15.262-25.912 14.184v-29.445zm55.873 0v29.445l-25.912-14.184 25.912-15.262zm1.926 0 25.914 15.262-25.914 14.184v-29.445zm55.875 0v29.445l-25.914-14.184 25.914-15.262zm1.926 0 25.912 15.262-25.912 14.184v-29.445zm55.875 0v29.445l-25.914-14.184 25.914-15.262zm1.924 0 25.914 15.262-25.914 14.184v-29.445zm55.875 0v29.445l-25.912-14.184 25.912-15.262zm1.926 0 25.914 15.262-25.914 14.184v-29.445zm55.875 0v29.445l-25.914-14.184 25.914-15.262zm1.928 0 25.9 15.262-25.9 14.184v-29.445zm57.8 0 25.912 15.262-25.912 14.184v-29.445zm55.873 0v29.445l-25.912-14.184 25.902-15.262zm-606.905 16.857v28.2l-25.722-14.103 25.723-14.096zm1.928 0 25.725 14.096-25.725 14.094v-28.2zm55.873 0v28.2l-25.724-14.103 25.725-14.096zm1.928 0 25.723 14.096-25.723 14.094v-28.2zm55.873 0v28.2l-25.725-14.094 25.725-14.096zm1.926 0 25.725 14.096-25.725 14.094v-28.2zm55.875 0v28.2l-25.728-14.103 25.727-14.096zm1.926 0 25.725 14.096-25.725 14.094v-28.2zm55.875 0v28.2l-25.727-14.094 25.727-14.096zm1.924 0 25.725 14.096-25.725 14.094v-28.2zm55.875 0v28.2l-25.723-14.094 25.723-14.096zm1.926 0 25.725 14.096-25.725 14.094v-28.2zm55.875 0v28.2l-25.725-14.094 25.725-14.096zm1.926 0 25.723 14.096-25.723 14.094v-28.2zm55.873 0v28.2l-25.723-14.094 25.723-14.096zm1.926 0 25.725 14.096-25.725 14.094v-28.2zm55.875 0v28.2l-25.725-14.094 25.725-14.096zm1.926 0 25.723 14.096-25.723 14.094v-28.2zm55.873 0v28.2l-25.723-14.094 25.723-14.096zm57.8 0v28.2l-25.725-14.094 25.725-14.096zm1.928 0 25.723 14.096-25.723 14.094v-28.2zm-606.903 15.602 25.912 14.186-25.912 15.262v-29.447zm55.873 0v29.447l-25.9-15.262 25.9-14.186zm1.928 0 25.912 14.186-25.912 15.262v-29.447zm55.873 0v29.447l-25.912-15.262 25.912-14.186zm1.928 0 25.912 14.186-25.912 15.262v-29.447zm55.87 0v29.447l-25.9-15.262 25.9-14.186zm1.928 0 25.914 14.186-25.914 15.262v-29.447zm55.875 0v29.447l-25.914-15.262 25.914-14.186zm1.926 0 25.912 14.186-25.912 15.262v-29.447zm55.873 0v29.447l-25.912-15.262 25.912-14.186zm1.926 0 25.914 14.186-25.914 15.262v-29.447zm55.875 0v29.447l-25.914-15.262 25.914-14.186zm1.926 0 25.912 14.186-25.912 15.262v-29.447zm55.875 0v29.447l-25.914-15.262 25.914-14.186zm1.924 0 25.914 14.186-25.914 15.262v-29.447zm55.875 0v29.447l-25.912-15.262 25.912-14.186zm1.926 0 25.914 14.186-25.914 15.262v-29.447zm55.875 0v29.447l-25.914-15.262 25.914-14.186zm1.928 0 25.9 14.186-25.9 15.262v-29.447zm55.87 0v29.447l-25.295-14.898c8.046-5.474 16.758-9.875 25.295-14.55zm1.928 0 25.912 14.186-25.912 15.262v-29.447zm55.873 0v29.447l-25.912-15.262 25.912-14.186zm-606.903 15.765v30.857l-26.33-15.497h.268l26.063-15.35zm1.928 0 26.067 15.36h.266l-.266.156-26.066 15.352v-30.868zm55.873 0v30.857l-26.332-15.497h.27l26.063-15.35zm1.928 0 26.064 15.36h.266l-.266.156-26.064 15.352zm55.873 0v30.857l-26.332-15.497h.268l26.064-15.35zm1.926 0 26.067 15.36h.266l-.266.156-26.066 15.352v-30.868zm55.875 0v30.857l-26.334-15.497h.27l26.064-15.35zm1.926 0 26.064 15.36h.268l-.268.156-26.064 15.352zm55.875 0v30.857l-26.334-15.497h.268l26.066-15.35zm1.924 0 26.067 15.36h.266l-.266.156-26.066 15.352v-30.868zm55.875 0v30.857l-26.333-15.497h.268l26.064-15.35zm1.926 0 26.064 15.36h.268l-.268.156-26.064 15.352zm55.875 0v30.857l-26.335-15.497h.268l26.066-15.35zm1.926 0 26.063 15.36h.266l-.266.156-26.064 15.352v-30.868zm55.873 0v30.857l-26.333-15.497h.268l26.064-15.35zm1.926 0 26.066 15.36h.268l-.268.156-26.066 15.352zm55.875 0v30.857l-26.333-15.497h.268l26.064-15.35zm1.926 0 26.063 15.36h.268l-.268.156-26.064 15.352v-30.868zm55.873 0v30.857l-26.331-15.497h.266l26.064-15.35zm1.928 0 26.064 15.36h.268l-.268.156-26.064 15.352zm55.873 0v30.857l-26.334-15.497h.268l26.064-15.35zm1.928 0 26.06 15.36h.27l-.27.156-26.062 15.352v-30.868zm-606.904 17.176 25.912 15.262-25.912 14.184v-29.445zm55.873 0v29.445l-25.9-14.184 25.9-15.262zm1.928 0 25.912 15.262-25.912 14.184v-29.445zm55.873 0v29.445l-25.912-14.184 25.912-15.262zm1.928 0 25.912 15.262-25.912 14.184v-29.445zm55.87 0v29.445l-25.9-14.184 25.9-15.262zm1.928 0 25.914 15.262-25.914 14.184v-29.445zm55.875 0v29.445l-25.914-14.184 25.914-15.262zm1.926 0 25.912 15.262-25.912 14.184v-29.445zm55.873 0v29.445l-25.912-14.184 25.912-15.262zm1.926 0 25.914 15.262-25.914 14.184v-29.445zm55.875 0v29.445l-25.914-14.184 25.914-15.262zm57.8 0v29.445l-25.914-14.184 25.914-15.262zm1.924 0 25.914 15.262-25.914 14.184v-29.445zm55.875 0v29.445l-25.912-14.184 25.912-15.262zm1.926 0 25.914 15.262-25.914 14.184v-29.445zm55.875 0v29.445l-25.914-14.184 25.914-15.262zm1.928 0 25.9 15.262-25.9 14.184v-29.445zm55.87 0v29.445l-25.912-14.184 25.912-15.262zm1.928 0 25.912 15.262-25.912 14.184v-29.445zm55.873 0v29.445l-25.912-14.184 25.912-15.262zm-606.902 16.858v28.2l-25.722-14.104 25.723-14.096zm1.928 0 25.725 14.096-25.725 14.094v-28.2zm55.873 0v28.2l-25.724-14.104 25.725-14.096zm1.928 0 25.723 14.096-25.723 14.094v-28.2zm55.873 0v28.2l-25.725-14.094 25.725-14.096zm1.926 0 25.725 14.096-25.725 14.094v-28.2zm55.875 0v28.2l-25.728-14.104 25.727-14.096zm1.926 0 25.725 14.096-25.725 14.094v-28.2zm55.875 0v28.2l-25.727-14.094 25.727-14.096zm1.924 0 25.725 14.096-25.725 14.094v-28.2zm55.875 0v28.2l-25.723-14.094 25.723-14.096zm1.926 0 25.725 14.096-25.725 14.094v-28.2zm57.8 0 25.723 14.096-25.723 14.094v-28.2zm55.873 0v28.2l-25.723-14.094 25.723-14.096zm1.926 0 25.725 14.096-25.725 14.094v-28.2zm55.875 0v28.2l-25.725-14.094 25.725-14.096zm1.926 0 25.723 14.096-25.723 14.094v-28.2zm55.873 0v28.2l-25.723-14.094 25.723-14.096zm1.928 0 25.725 14.096-25.725 14.094v-28.2zm55.873 0v28.2l-25.725-14.094 25.725-14.096zm1.928 0 25.723 14.096-25.723 14.094v-28.2zm-630.036 32.558v2.203l11.145 6.565h3.742zm680 .082-14.744 8.686h3.74l11.004-6.48v-2.205z" fill="#fff" opacity=".1"/><path d="m2020.24 333.073-43 25v48l14 9 15-9v-16l-15-8v-16l29-17 29 17v16l-15 8v16l15 9 14-9v-48z" filter="url(#a)" opacity=".15" transform="matrix(2 0 0 2 -3700.4793 -489.90523)"/><path d="m340 170-86 50v96l28 18 30-18v-32l-30-16v-32l58-34 58 34v32l-30 16v32l30 18 28-18v-96zm-85.9 227h36.937v-6.772h-30.167v-30.228h-6.77zm60.758-20.932-13.44-16.006h-7.387v36.937h6.772v-27.087l14.057 16.673 14.005-16.673v27.087h6.823v-36.937h-7.44zm47.594 0-13.44-16.006h-7.387v36.937h6.772v-27.087l14.057 16.673 14.006-16.673v27.087h6.823v-36.937h-7.44zm63.448-8.875a7.15 7.15 0 0 0 -7.13-7.13h-22.675c-3.95 0-7.13 3.18-7.13 7.13v7.593c0 3.95 3.18 7.13 7.13 7.13h22.676c.154 0 .308.154.308.36v7.593c0 .205-.154.36-.308.36h-22.675a.35.35 0 0 1 -.359-.359v-2.822h-6.772v2.822c0 3.95 3.18 7.13 7.13 7.13h22.676a7.15 7.15 0 0 0 7.13-7.13v-7.593a7.15 7.15 0 0 0 -7.13-7.13h-22.675a.35.35 0 0 1 -.359-.359v-7.593a.35.35 0 0 1 .359-.359h22.676c.154 0 .308.154.308.36v2.822h6.823z" fill="#fff"/></svg>