<svg height="22" viewBox="0 0 5.8208332 5.8208332" width="22" xmlns="http://www.w3.org/2000/svg"><path d="m1.5874996 1.058334h1.3890625c.5496708 0 .9921875.1779323.9921875.7276042v.1322916c0 .3289009-.1601166.5472854-.4051432.7276095.3929763.1542865.6697265.6093275.6697265 1.058328 0 .5863167-.4720169 1.0583333-1.0583333 1.0583333h-1.5875zm.79375.79375v.5291667h.3803386c.2290304 0 .4134114-.044709.4134114-.2645781 0-.2198687-.184381-.2645886-.4134114-.2645886zm0 1.3229167v.7937499h.6449219c.2290313 0 .4134115-.1770062.4134115-.396875 0-.2198687-.1843802-.3968749-.4134115-.3968749z" fill="#fff"/></svg>