<svg height="20" viewBox="0 0 5.2916665 5.2916665" width="20" xmlns="http://www.w3.org/2000/svg"><path d="m2.3812499-.00000001v.81855465c-.3148435.04525698-.6005142.16446235-.8433593.34726566l-.5787761-.57877607-.3720703.3720703.5787761.57877607c-.1828033.2428451-.3020087.5285158-.3472657.8433593h-.8185546v.5291667h.8185546c.045257.3148435.1644624.6005142.3472657.8433593l-.5787761.578776.3720703.3720703.5787761-.578776c.2428451.1828033.5285158.3020087.8433593.3472656v.8185547h.5291667v-.8185547c.3148435-.0452569.6005142-.1644623.8433593-.3472656l.578776.578776.3720703-.3720703-.578776-.578776c.1828033-.2428451.3020087-.5285158.3472656-.8433593h.8185547v-.5291667h-.8185547c-.0452569-.3148435-.1644623-.6005142-.3472656-.8433593l.578776-.57877607-.3720703-.3720703-.578776.57877607c-.2428451-.18280331-.5285158-.30200868-.8433593-.34726566v-.03307291-.78548174zm.2645834 1.58749991c.5845016 0 1.0583332.4738317 1.0583332 1.0583334 0 .5845016-.4738316 1.0583332-1.0583332 1.0583332-.5845017 0-1.0583334-.4738316-1.0583334-1.0583332 0-.5845017.4738317-1.0583334 1.0583334-1.0583334z" fill="#fff"/></svg>