<svg height="48" viewBox="0 0 12.7 12.7" width="48" xmlns="http://www.w3.org/2000/svg"><path d="m6.35-.00000009c-3.5070071 0-6.35 2.84299289-6.35 6.34999999 0 3.5070072 2.8429929 6.3500001 6.35 6.3500001 3.507007 0 6.35-2.8429929 6.35-6.3500001 0-3.5070071-2.842993-6.34999999-6.35-6.34999999zm0 1.58749999c1.8566527 0 2.910417 1.0537613 2.910417 2.9104167 0 2.2411743-2.3812503 2.7661049-2.3812503 4.4979166h-1.0583334c0-2.3090849 2.38125-2.8170372 2.38125-4.4979166 0-1.2377711-.6143122-1.8520834-1.8520833-1.8520834s-1.8520833.6143123-1.8520833 1.8520834h-1.0583334c0-1.8566554 1.053764-2.9104167 2.9104167-2.9104167zm-.5291667 8.4666671h1.0583334v1.058333h-1.0583334z" fill="#fff"/></svg>