<svg height="16" viewBox="0 0 4.2333332 4.2333332" width="16" xmlns="http://www.w3.org/2000/svg"><path d="m.79374997.26458333v3.70416667h2.64583323v-2.6458333h-1.0583333v-1.05833337zm1.85208323 0v.79375007h.79375zm-1.0583333 1.85208067v-.2645833c0-.2645833.2645833-.2645833.2645833-.2645833l.2645834.0000026c.2645833.0000027.5291666.2645834.5291666.5291667 0 .5291666-.5291666.79375-.5291666.79375v.2645833h-.2645834v-.5291667c.2645834 0 .5291667-.2645833.5291667-.5291666 0 0 0-.2645833-.2645833-.2645833-.2645834-.0000027-.2645834-.0000027-.2645834.2645806zm.2645833 1.3229193h.2645834v.2645834h-.2645834z" fill="#fff"/></svg>