<svg height="24" viewBox="0 0 6.3499999 6.3499999" width="24" xmlns="http://www.w3.org/2000/svg"><g fill="#fff"><path d="m2.5135419.26457873c-1.2420653 0-2.24895829 1.00689307-2.24895829 2.24895827 0 1.2420653 1.00689299 2.2489583 2.24895829 2.2489583.4869365 0 .938231-.150405 1.3063802-.4134114l1.7363281 1.7363281c.2645833.2645886.79375-.264578.5291667-.5291667l-1.7363281-1.7363281c.2630064-.3681492.4134114-.8194437.4134114-1.3063802 0-1.2420652-1.006893-2.24895827-2.2489583-2.24895827zm0 .52916666c.9498145 0 1.7197917.76997721 1.7197917 1.71979161 0 .9498145-.7699772 1.7197917-1.7197917 1.7197917s-1.71979163-.7699772-1.71979163-1.7197917c0-.9498144.76997713-1.71979161 1.71979163-1.71979161z"/><path d="m1.852083 2.38125h1.5875v.264583h-1.5875z"/><path d="m2.1166666 1.8520833v1.3229167l-.79375-.6614583z"/><path d="m2.9104166 1.8520833v1.3229167l.79375-.6614583z"/></g></svg>